<svg width="775" height="42" viewBox="0 0 775 42" fill="none" xmlns="http://www.w3.org/2000/svg">
<path d="M1 1H249.685L278.256 21L249.685 41H1V21V1Z" fill="#2D96CD" stroke="#2D96CD" stroke-width="2"/>
<path d="M19.598 13.4545H22.2614L26.892 24.7614H27.0625L31.6932 13.4545H34.3565V28H32.2685V17.4744H32.1335L27.8438 27.9787H26.1108L21.821 17.4673H21.6861V28H19.598V13.4545ZM42.0785 28.2202C41.0037 28.2202 40.078 27.9905 39.3015 27.5312C38.5297 27.0672 37.9331 26.4162 37.5117 25.5781C37.0951 24.7353 36.8867 23.7481 36.8867 22.6165C36.8867 21.4991 37.0951 20.5142 37.5117 19.6619C37.9331 18.8097 38.5202 18.1444 39.2731 17.6662C40.0307 17.188 40.9161 16.9489 41.9293 16.9489C42.5449 16.9489 43.1415 17.0507 43.7191 17.2543C44.2968 17.4579 44.8152 17.7775 45.2745 18.2131C45.7338 18.6487 46.096 19.2145 46.3612 19.9105C46.6263 20.6018 46.7589 21.4422 46.7589 22.4318V23.1847H38.087V21.5938H44.6779C44.6779 21.035 44.5643 20.5402 44.337 20.1094C44.1097 19.6738 43.7901 19.3305 43.3782 19.0795C42.971 18.8286 42.4928 18.7031 41.9435 18.7031C41.3469 18.7031 40.8261 18.8499 40.381 19.1435C39.9407 19.4323 39.5998 19.8111 39.3583 20.2798C39.1216 20.7438 39.0032 21.2481 39.0032 21.7926V23.0355C39.0032 23.7647 39.131 24.3849 39.3867 24.8963C39.6471 25.4077 40.0094 25.7983 40.4734 26.0682C40.9374 26.3333 41.4795 26.4659 42.0998 26.4659C42.5022 26.4659 42.8692 26.4091 43.2006 26.2955C43.5321 26.1771 43.8185 26.0019 44.06 25.7699C44.3015 25.5379 44.4862 25.2514 44.614 24.9105L46.6239 25.2727C46.4629 25.8646 46.1741 26.383 45.7575 26.8281C45.3455 27.2685 44.8271 27.6117 44.2021 27.858C43.5818 28.0994 42.8739 28.2202 42.0785 28.2202ZM40.9705 15.6349L42.6325 12.3608H44.8697L42.668 15.6349H40.9705ZM54.2074 17.0909V18.7955H48.2486V17.0909H54.2074ZM49.8466 14.4773H51.9702V24.7969C51.9702 25.2088 52.0317 25.5189 52.1548 25.7273C52.2779 25.9309 52.4366 26.0705 52.6307 26.1463C52.8295 26.2173 53.045 26.2528 53.277 26.2528C53.4474 26.2528 53.5966 26.241 53.7244 26.2173C53.8523 26.1937 53.9517 26.1747 54.0227 26.1605L54.4062 27.9148C54.2831 27.9621 54.108 28.0095 53.8807 28.0568C53.6534 28.1089 53.3693 28.1373 53.0284 28.142C52.4697 28.1515 51.9489 28.0521 51.4659 27.8438C50.983 27.6354 50.5923 27.3134 50.294 26.8778C49.9957 26.4422 49.8466 25.8954 49.8466 25.2372V14.4773ZM61.0344 28.2202C60.0117 28.2202 59.1192 27.9858 58.3569 27.517C57.5946 27.0483 57.0027 26.3925 56.5813 25.5497C56.1599 24.7069 55.9492 23.7221 55.9492 22.5952C55.9492 21.4635 56.1599 20.474 56.5813 19.6264C57.0027 18.7789 57.5946 18.1207 58.3569 17.652C59.1192 17.1832 60.0117 16.9489 61.0344 16.9489C62.0572 16.9489 62.9497 17.1832 63.712 17.652C64.4743 18.1207 65.0662 18.7789 65.4876 19.6264C65.909 20.474 66.1197 21.4635 66.1197 22.5952C66.1197 23.7221 65.909 24.7069 65.4876 25.5497C65.0662 26.3925 64.4743 27.0483 63.712 27.517C62.9497 27.9858 62.0572 28.2202 61.0344 28.2202ZM61.0415 26.4375C61.7044 26.4375 62.2537 26.2623 62.6893 25.9119C63.1249 25.5616 63.4469 25.0952 63.6552 24.5128C63.8683 23.9304 63.9748 23.2888 63.9748 22.5881C63.9748 21.892 63.8683 21.2528 63.6552 20.6705C63.4469 20.0833 63.1249 19.6122 62.6893 19.2571C62.2537 18.902 61.7044 18.7244 61.0415 18.7244C60.3739 18.7244 59.82 18.902 59.3796 19.2571C58.944 19.6122 58.6197 20.0833 58.4066 20.6705C58.1983 21.2528 58.0941 21.892 58.0941 22.5881C58.0941 23.2888 58.1983 23.9304 58.4066 24.5128C58.6197 25.0952 58.944 25.5616 59.3796 25.9119C59.82 26.2623 60.3739 26.4375 61.0415 26.4375ZM72.5739 28.2131C71.6932 28.2131 70.9072 27.9882 70.2159 27.5384C69.5294 27.0838 68.9896 26.4375 68.5966 25.5994C68.2083 24.7566 68.0142 23.7457 68.0142 22.5668C68.0142 21.3878 68.2107 20.3793 68.6037 19.5412C69.0014 18.7031 69.5459 18.0616 70.2372 17.6165C70.9285 17.1714 71.7121 16.9489 72.5881 16.9489C73.2652 16.9489 73.8097 17.0625 74.2216 17.2898C74.6383 17.5123 74.9602 17.7727 75.1875 18.071C75.4195 18.3693 75.5994 18.6321 75.7273 18.8594H75.8551V13.4545H77.9787V28H75.9048V26.3026H75.7273C75.5994 26.5346 75.4148 26.7997 75.1733 27.098C74.9366 27.3963 74.6098 27.6567 74.1932 27.8793C73.7765 28.1018 73.2367 28.2131 72.5739 28.2131ZM73.0426 26.402C73.6534 26.402 74.1695 26.241 74.5909 25.919C75.017 25.5923 75.339 25.1402 75.5568 24.5625C75.7794 23.9848 75.8906 23.3125 75.8906 22.5455C75.8906 21.7879 75.7817 21.125 75.5639 20.5568C75.3461 19.9886 75.0265 19.5459 74.6051 19.2287C74.1837 18.9115 73.6629 18.7528 73.0426 18.7528C72.4034 18.7528 71.8707 18.9186 71.4446 19.25C71.0185 19.5814 70.6965 20.0336 70.4787 20.6065C70.2656 21.1795 70.1591 21.8258 70.1591 22.5455C70.1591 23.2746 70.268 23.9304 70.4858 24.5128C70.7036 25.0952 71.0256 25.5568 71.4517 25.8977C71.8826 26.2339 72.4129 26.402 73.0426 26.402ZM85.6048 28.2202C84.582 28.2202 83.6895 27.9858 82.9272 27.517C82.1649 27.0483 81.573 26.3925 81.1516 25.5497C80.7302 24.7069 80.5195 23.7221 80.5195 22.5952C80.5195 21.4635 80.7302 20.474 81.1516 19.6264C81.573 18.7789 82.1649 18.1207 82.9272 17.652C83.6895 17.1832 84.582 16.9489 85.6048 16.9489C86.6275 16.9489 87.52 17.1832 88.2823 17.652C89.0446 18.1207 89.6365 18.7789 90.0579 19.6264C90.4793 20.474 90.69 21.4635 90.69 22.5952C90.69 23.7221 90.4793 24.7069 90.0579 25.5497C89.6365 26.3925 89.0446 27.0483 88.2823 27.517C87.52 27.9858 86.6275 28.2202 85.6048 28.2202ZM85.6119 26.4375C86.2747 26.4375 86.824 26.2623 87.2596 25.9119C87.6952 25.5616 88.0172 25.0952 88.2255 24.5128C88.4386 23.9304 88.5451 23.2888 88.5451 22.5881C88.5451 21.892 88.4386 21.2528 88.2255 20.6705C88.0172 20.0833 87.6952 19.6122 87.2596 19.2571C86.824 18.902 86.2747 18.7244 85.6119 18.7244C84.9442 18.7244 84.3903 18.902 83.9499 19.2571C83.5143 19.6122 83.19 20.0833 82.9769 20.6705C82.7686 21.2528 82.6644 21.892 82.6644 22.5881C82.6644 23.2888 82.7686 23.9304 82.9769 24.5128C83.19 25.0952 83.5143 25.5616 83.9499 25.9119C84.3903 26.2623 84.9442 26.4375 85.6119 26.4375ZM102.437 28.2131C101.556 28.2131 100.77 27.9882 100.079 27.5384C99.3926 27.0838 98.8529 26.4375 98.4599 25.5994C98.0716 24.7566 97.8775 23.7457 97.8775 22.5668C97.8775 21.3878 98.074 20.3793 98.467 19.5412C98.8647 18.7031 99.4092 18.0616 100.1 17.6165C100.792 17.1714 101.575 16.9489 102.451 16.9489C103.128 16.9489 103.673 17.0625 104.085 17.2898C104.502 17.5123 104.824 17.7727 105.051 18.071C105.283 18.3693 105.463 18.6321 105.591 18.8594H105.718V13.4545H107.842V28H105.768V26.3026H105.591C105.463 26.5346 105.278 26.7997 105.037 27.098C104.8 27.3963 104.473 27.6567 104.056 27.8793C103.64 28.1018 103.1 28.2131 102.437 28.2131ZM102.906 26.402C103.517 26.402 104.033 26.241 104.454 25.919C104.88 25.5923 105.202 25.1402 105.42 24.5625C105.643 23.9848 105.754 23.3125 105.754 22.5455C105.754 21.7879 105.645 21.125 105.427 20.5568C105.209 19.9886 104.89 19.5459 104.468 19.2287C104.047 18.9115 103.526 18.7528 102.906 18.7528C102.267 18.7528 101.734 18.9186 101.308 19.25C100.882 19.5814 100.56 20.0336 100.342 20.6065C100.129 21.1795 100.022 21.8258 100.022 22.5455C100.022 23.2746 100.131 23.9304 100.349 24.5128C100.567 25.0952 100.889 25.5568 101.315 25.8977C101.746 26.2339 102.276 26.402 102.906 26.402ZM115.575 28.2202C114.5 28.2202 113.574 27.9905 112.798 27.5312C112.026 27.0672 111.429 26.4162 111.008 25.5781C110.591 24.7353 110.383 23.7481 110.383 22.6165C110.383 21.4991 110.591 20.5142 111.008 19.6619C111.429 18.8097 112.016 18.1444 112.769 17.6662C113.527 17.188 114.412 16.9489 115.425 16.9489C116.041 16.9489 116.638 17.0507 117.215 17.2543C117.793 17.4579 118.311 17.7775 118.771 18.2131C119.23 18.6487 119.592 19.2145 119.857 19.9105C120.122 20.6018 120.255 21.4422 120.255 22.4318V23.1847H111.583V21.5938H118.174C118.174 21.035 118.06 20.5402 117.833 20.1094C117.606 19.6738 117.286 19.3305 116.874 19.0795C116.467 18.8286 115.989 18.7031 115.44 18.7031C114.843 18.7031 114.322 18.8499 113.877 19.1435C113.437 19.4323 113.096 19.8111 112.854 20.2798C112.618 20.7438 112.499 21.2481 112.499 21.7926V23.0355C112.499 23.7647 112.627 24.3849 112.883 24.8963C113.143 25.4077 113.505 25.7983 113.969 26.0682C114.433 26.3333 114.976 26.4659 115.596 26.4659C115.998 26.4659 116.365 26.4091 116.697 26.2955C117.028 26.1771 117.315 26.0019 117.556 25.7699C117.798 25.5379 117.982 25.2514 118.11 24.9105L120.12 25.2727C119.959 25.8646 119.67 26.383 119.254 26.8281C118.842 27.2685 118.323 27.6117 117.698 27.858C117.078 28.0994 116.37 28.2202 115.575 28.2202ZM127.904 32.0909V17.0909H129.978V18.8594H130.156C130.279 18.6321 130.456 18.3693 130.688 18.071C130.92 17.7727 131.242 17.5123 131.654 17.2898C132.066 17.0625 132.611 16.9489 133.288 16.9489C134.168 16.9489 134.954 17.1714 135.646 17.6165C136.337 18.0616 136.879 18.7031 137.272 19.5412C137.67 20.3793 137.869 21.3878 137.869 22.5668C137.869 23.7457 137.672 24.7566 137.279 25.5994C136.886 26.4375 136.346 27.0838 135.66 27.5384C134.973 27.9882 134.19 28.2131 133.309 28.2131C132.646 28.2131 132.104 28.1018 131.683 27.8793C131.266 27.6567 130.939 27.3963 130.702 27.098C130.466 26.7997 130.283 26.5346 130.156 26.3026H130.028V32.0909H127.904ZM129.985 22.5455C129.985 23.3125 130.096 23.9848 130.319 24.5625C130.541 25.1402 130.863 25.5923 131.285 25.919C131.706 26.241 132.222 26.402 132.833 26.402C133.468 26.402 133.998 26.2339 134.424 25.8977C134.85 25.5568 135.172 25.0952 135.39 24.5128C135.612 23.9304 135.724 23.2746 135.724 22.5455C135.724 21.8258 135.615 21.1795 135.397 20.6065C135.184 20.0336 134.862 19.5814 134.431 19.25C134.005 18.9186 133.472 18.7528 132.833 18.7528C132.218 18.7528 131.697 18.9115 131.271 19.2287C130.849 19.5459 130.53 19.9886 130.312 20.5568C130.094 21.125 129.985 21.7879 129.985 22.5455ZM143.423 28.2415C142.731 28.2415 142.106 28.1136 141.548 27.858C140.989 27.5975 140.546 27.2211 140.219 26.7287C139.897 26.2363 139.737 25.6326 139.737 24.9176C139.737 24.3021 139.855 23.7955 140.092 23.3977C140.328 23 140.648 22.6851 141.05 22.4531C141.453 22.2211 141.903 22.0459 142.4 21.9276C142.897 21.8092 143.404 21.7192 143.92 21.6577C144.573 21.5819 145.103 21.5204 145.511 21.473C145.918 21.4209 146.214 21.3381 146.398 21.2244C146.583 21.1108 146.675 20.9261 146.675 20.6705V20.6207C146.675 20.0005 146.5 19.5199 146.15 19.179C145.804 18.8381 145.288 18.6676 144.602 18.6676C143.887 18.6676 143.323 18.8262 142.911 19.1435C142.504 19.456 142.222 19.804 142.066 20.1875L140.07 19.733C140.307 19.0701 140.653 18.535 141.107 18.1278C141.567 17.7159 142.094 17.4176 142.691 17.233C143.288 17.0436 143.915 16.9489 144.573 16.9489C145.009 16.9489 145.47 17.0009 145.958 17.1051C146.451 17.2045 146.91 17.3892 147.336 17.6591C147.767 17.929 148.12 18.3149 148.394 18.8168C148.669 19.3139 148.806 19.9602 148.806 20.7557V28H146.732V26.5085H146.647C146.51 26.7831 146.304 27.053 146.029 27.3182C145.754 27.5833 145.402 27.8035 144.971 27.9787C144.54 28.1539 144.024 28.2415 143.423 28.2415ZM143.884 26.5369C144.471 26.5369 144.973 26.4209 145.39 26.1889C145.811 25.9569 146.131 25.6539 146.349 25.2798C146.571 24.901 146.683 24.4962 146.683 24.0653V22.6591C146.607 22.7348 146.46 22.8059 146.242 22.8722C146.029 22.9337 145.785 22.9882 145.511 23.0355C145.236 23.0781 144.969 23.1184 144.708 23.1562C144.448 23.1894 144.23 23.2178 144.055 23.2415C143.643 23.2936 143.266 23.3812 142.925 23.5043C142.589 23.6274 142.319 23.8049 142.116 24.0369C141.917 24.2642 141.817 24.5672 141.817 24.946C141.817 25.4716 142.012 25.8693 142.4 26.1392C142.788 26.4044 143.283 26.5369 143.884 26.5369ZM156.208 32.3182C155.342 32.3182 154.596 32.2045 153.971 31.9773C153.351 31.75 152.844 31.4493 152.451 31.0753C152.058 30.7012 151.765 30.2917 151.571 29.8466L153.396 29.0938C153.524 29.3021 153.694 29.5223 153.907 29.7543C154.125 29.991 154.419 30.1922 154.788 30.358C155.162 30.5237 155.643 30.6065 156.23 30.6065C157.035 30.6065 157.7 30.41 158.225 30.017C158.751 29.6288 159.014 29.0085 159.014 28.1562V26.0114H158.879C158.751 26.2434 158.566 26.5014 158.325 26.7855C158.088 27.0696 157.761 27.3158 157.345 27.5241C156.928 27.7325 156.386 27.8366 155.718 27.8366C154.857 27.8366 154.08 27.6354 153.389 27.233C152.702 26.8258 152.158 26.2268 151.755 25.4361C151.358 24.6406 151.159 23.6629 151.159 22.5028C151.159 21.3428 151.355 20.3485 151.748 19.5199C152.146 18.6913 152.69 18.0568 153.382 17.6165C154.073 17.1714 154.857 16.9489 155.733 16.9489C156.41 16.9489 156.957 17.0625 157.373 17.2898C157.79 17.5123 158.114 17.7727 158.346 18.071C158.583 18.3693 158.765 18.6321 158.893 18.8594H159.049V17.0909H161.13V28.2415C161.13 29.179 160.913 29.9484 160.477 30.5497C160.041 31.151 159.452 31.5961 158.708 31.8849C157.97 32.1738 157.136 32.3182 156.208 32.3182ZM156.187 26.0753C156.798 26.0753 157.314 25.9332 157.735 25.6491C158.162 25.3603 158.484 24.9484 158.701 24.4134C158.924 23.8736 159.035 23.2273 159.035 22.4744C159.035 21.7405 158.926 21.0942 158.708 20.5355C158.491 19.9768 158.171 19.5412 157.75 19.2287C157.328 18.9115 156.807 18.7528 156.187 18.7528C155.548 18.7528 155.015 18.9186 154.589 19.25C154.163 19.5767 153.841 20.0218 153.623 20.5852C153.41 21.1487 153.304 21.7784 153.304 22.4744C153.304 23.1894 153.413 23.8168 153.63 24.3565C153.848 24.8963 154.17 25.3177 154.596 25.6207C155.027 25.9238 155.557 26.0753 156.187 26.0753ZM167.153 28.2415C166.462 28.2415 165.837 28.1136 165.278 27.858C164.719 27.5975 164.277 27.2211 163.95 26.7287C163.628 26.2363 163.467 25.6326 163.467 24.9176C163.467 24.3021 163.585 23.7955 163.822 23.3977C164.059 23 164.378 22.6851 164.781 22.4531C165.183 22.2211 165.633 22.0459 166.13 21.9276C166.627 21.8092 167.134 21.7192 167.65 21.6577C168.304 21.5819 168.834 21.5204 169.241 21.473C169.648 21.4209 169.944 21.3381 170.129 21.2244C170.314 21.1108 170.406 20.9261 170.406 20.6705V20.6207C170.406 20.0005 170.231 19.5199 169.88 19.179C169.535 18.8381 169.019 18.6676 168.332 18.6676C167.617 18.6676 167.054 18.8262 166.642 19.1435C166.234 19.456 165.953 19.804 165.797 20.1875L163.801 19.733C164.038 19.0701 164.383 18.535 164.838 18.1278C165.297 17.7159 165.825 17.4176 166.422 17.233C167.018 17.0436 167.645 16.9489 168.304 16.9489C168.739 16.9489 169.201 17.0009 169.689 17.1051C170.181 17.2045 170.64 17.3892 171.066 17.6591C171.497 17.929 171.85 18.3149 172.125 18.8168C172.399 19.3139 172.537 19.9602 172.537 20.7557V28H170.463V26.5085H170.377C170.24 26.7831 170.034 27.053 169.76 27.3182C169.485 27.5833 169.132 27.8035 168.701 27.9787C168.27 28.1539 167.754 28.2415 167.153 28.2415ZM167.615 26.5369C168.202 26.5369 168.704 26.4209 169.12 26.1889C169.542 25.9569 169.861 25.6539 170.079 25.2798C170.302 24.901 170.413 24.4962 170.413 24.0653V22.6591C170.337 22.7348 170.19 22.8059 169.973 22.8722C169.76 22.9337 169.516 22.9882 169.241 23.0355C168.967 23.0781 168.699 23.1184 168.439 23.1562C168.178 23.1894 167.96 23.2178 167.785 23.2415C167.373 23.2936 166.997 23.3812 166.656 23.5043C166.32 23.6274 166.05 23.8049 165.846 24.0369C165.647 24.2642 165.548 24.5672 165.548 24.946C165.548 25.4716 165.742 25.8693 166.13 26.1392C166.519 26.4044 167.013 26.5369 167.615 26.5369ZM175.365 28V17.0909H177.403V18.8665H177.538C177.766 18.2652 178.137 17.7964 178.653 17.4602C179.17 17.1193 179.787 16.9489 180.507 16.9489C181.236 16.9489 181.847 17.1193 182.339 17.4602C182.837 17.8011 183.204 18.2699 183.44 18.8665H183.554C183.814 18.2841 184.229 17.8201 184.797 17.4744C185.365 17.1241 186.042 16.9489 186.828 16.9489C187.818 16.9489 188.625 17.259 189.25 17.8793C189.88 18.4995 190.195 19.4347 190.195 20.6847V28H188.071V20.8835C188.071 20.1449 187.87 19.6098 187.467 19.2784C187.065 18.947 186.584 18.7812 186.026 18.7812C185.334 18.7812 184.797 18.9943 184.413 19.4205C184.03 19.8419 183.838 20.384 183.838 21.0469V28H181.722V20.7486C181.722 20.1567 181.537 19.6809 181.168 19.321C180.798 18.9612 180.318 18.7812 179.726 18.7812C179.323 18.7812 178.952 18.8878 178.611 19.1009C178.275 19.3092 178.002 19.6004 177.794 19.9744C177.59 20.3485 177.489 20.7817 177.489 21.2741V28H175.365ZM197.743 28.2202C196.668 28.2202 195.742 27.9905 194.966 27.5312C194.194 27.0672 193.597 26.4162 193.176 25.5781C192.759 24.7353 192.551 23.7481 192.551 22.6165C192.551 21.4991 192.759 20.5142 193.176 19.6619C193.597 18.8097 194.184 18.1444 194.937 17.6662C195.695 17.188 196.58 16.9489 197.593 16.9489C198.209 16.9489 198.806 17.0507 199.383 17.2543C199.961 17.4579 200.479 17.7775 200.939 18.2131C201.398 18.6487 201.76 19.2145 202.025 19.9105C202.29 20.6018 202.423 21.4422 202.423 22.4318V23.1847H193.751V21.5938H200.342C200.342 21.035 200.228 20.5402 200.001 20.1094C199.774 19.6738 199.454 19.3305 199.042 19.0795C198.635 18.8286 198.157 18.7031 197.608 18.7031C197.011 18.7031 196.49 18.8499 196.045 19.1435C195.605 19.4323 195.264 19.8111 195.022 20.2798C194.786 20.7438 194.667 21.2481 194.667 21.7926V23.0355C194.667 23.7647 194.795 24.3849 195.051 24.8963C195.311 25.4077 195.673 25.7983 196.137 26.0682C196.601 26.3333 197.144 26.4659 197.764 26.4659C198.166 26.4659 198.533 26.4091 198.865 26.2955C199.196 26.1771 199.483 26.0019 199.724 25.7699C199.966 25.5379 200.15 25.2514 200.278 24.9105L202.288 25.2727C202.127 25.8646 201.838 26.383 201.422 26.8281C201.01 27.2685 200.491 27.6117 199.866 27.858C199.246 28.0994 198.538 28.2202 197.743 28.2202ZM206.903 21.5227V28H204.779V17.0909H206.817V18.8665H206.952C207.203 18.2888 207.596 17.8248 208.131 17.4744C208.671 17.1241 209.351 16.9489 210.17 16.9489C210.913 16.9489 211.564 17.1051 212.123 17.4176C212.682 17.7254 213.115 18.1847 213.423 18.7955C213.73 19.4062 213.884 20.1615 213.884 21.0611V28H211.761V21.3168C211.761 20.526 211.555 19.9081 211.143 19.4631C210.731 19.0133 210.165 18.7884 209.445 18.7884C208.953 18.7884 208.515 18.8949 208.131 19.108C207.753 19.321 207.452 19.6335 207.229 20.0455C207.012 20.4527 206.903 20.9451 206.903 21.5227ZM221.825 17.0909V18.7955H215.866V17.0909H221.825ZM217.464 14.4773H219.587V24.7969C219.587 25.2088 219.649 25.5189 219.772 25.7273C219.895 25.9309 220.054 26.0705 220.248 26.1463C220.447 26.2173 220.662 26.2528 220.894 26.2528C221.065 26.2528 221.214 26.241 221.342 26.2173C221.469 26.1937 221.569 26.1747 221.64 26.1605L222.023 27.9148C221.9 27.9621 221.725 28.0095 221.498 28.0568C221.271 28.1089 220.987 28.1373 220.646 28.142C220.087 28.1515 219.566 28.0521 219.083 27.8438C218.6 27.6354 218.21 27.3134 217.911 26.8778C217.613 26.4422 217.464 25.8954 217.464 25.2372V14.4773ZM228.652 28.2202C227.629 28.2202 226.736 27.9858 225.974 27.517C225.212 27.0483 224.62 26.3925 224.199 25.5497C223.777 24.7069 223.566 23.7221 223.566 22.5952C223.566 21.4635 223.777 20.474 224.199 19.6264C224.62 18.7789 225.212 18.1207 225.974 17.652C226.736 17.1832 227.629 16.9489 228.652 16.9489C229.674 16.9489 230.567 17.1832 231.329 17.652C232.092 18.1207 232.683 18.7789 233.105 19.6264C233.526 20.474 233.737 21.4635 233.737 22.5952C233.737 23.7221 233.526 24.7069 233.105 25.5497C232.683 26.3925 232.092 27.0483 231.329 27.517C230.567 27.9858 229.674 28.2202 228.652 28.2202ZM228.659 26.4375C229.322 26.4375 229.871 26.2623 230.306 25.9119C230.742 25.5616 231.064 25.0952 231.272 24.5128C231.485 23.9304 231.592 23.2888 231.592 22.5881C231.592 21.892 231.485 21.2528 231.272 20.6705C231.064 20.0833 230.742 19.6122 230.306 19.2571C229.871 18.902 229.322 18.7244 228.659 18.7244C227.991 18.7244 227.437 18.902 226.997 19.2571C226.561 19.6122 226.237 20.0833 226.024 20.6705C225.815 21.2528 225.711 21.892 225.711 22.5881C225.711 23.2888 225.815 23.9304 226.024 24.5128C226.237 25.0952 226.561 25.5616 226.997 25.9119C227.437 26.2623 227.991 26.4375 228.659 26.4375Z" fill="white"/>
<path d="M547.679 18.1847H545.463C545.378 17.7112 545.219 17.2945 544.987 16.9347C544.755 16.5748 544.471 16.2694 544.135 16.0185C543.799 15.7675 543.422 15.5781 543.006 15.4503C542.594 15.3224 542.156 15.2585 541.692 15.2585C540.854 15.2585 540.103 15.4692 539.44 15.8906C538.782 16.312 538.261 16.9299 537.878 17.7443C537.499 18.5587 537.31 19.553 537.31 20.7273C537.31 21.911 537.499 22.91 537.878 23.7244C538.261 24.5388 538.785 25.1544 539.447 25.571C540.11 25.9877 540.856 26.196 541.685 26.196C542.144 26.196 542.58 26.1345 542.991 26.0114C543.408 25.8835 543.785 25.6965 544.121 25.4503C544.457 25.2041 544.741 24.9034 544.973 24.5483C545.21 24.1884 545.373 23.7765 545.463 23.3125L547.679 23.3196C547.561 24.0346 547.331 24.6927 546.99 25.294C546.654 25.8906 546.221 26.4067 545.69 26.8423C545.165 27.2732 544.563 27.607 543.886 27.8438C543.209 28.0805 542.471 28.1989 541.67 28.1989C540.411 28.1989 539.289 27.9006 538.304 27.304C537.319 26.7027 536.543 25.8433 535.974 24.7259C535.411 23.6084 535.129 22.2756 535.129 20.7273C535.129 19.1742 535.413 17.8414 535.982 16.7287C536.55 15.6113 537.326 14.7543 538.311 14.1577C539.296 13.5563 540.416 13.2557 541.67 13.2557C542.442 13.2557 543.162 13.367 543.83 13.5895C544.502 13.8073 545.106 14.1293 545.641 14.5554C546.176 14.9768 546.618 15.4929 546.969 16.1037C547.319 16.7098 547.556 17.4034 547.679 18.1847ZM554.73 28.2202C553.707 28.2202 552.815 27.9858 552.052 27.517C551.29 27.0483 550.698 26.3925 550.277 25.5497C549.855 24.7069 549.645 23.7221 549.645 22.5952C549.645 21.4635 549.855 20.474 550.277 19.6264C550.698 18.7789 551.29 18.1207 552.052 17.652C552.815 17.1832 553.707 16.9489 554.73 16.9489C555.752 16.9489 556.645 17.1832 557.407 17.652C558.17 18.1207 558.761 18.7789 559.183 19.6264C559.604 20.474 559.815 21.4635 559.815 22.5952C559.815 23.7221 559.604 24.7069 559.183 25.5497C558.761 26.3925 558.17 27.0483 557.407 27.517C556.645 27.9858 555.752 28.2202 554.73 28.2202ZM554.737 26.4375C555.4 26.4375 555.949 26.2623 556.385 25.9119C556.82 25.5616 557.142 25.0952 557.35 24.5128C557.564 23.9304 557.67 23.2888 557.67 22.5881C557.67 21.892 557.564 21.2528 557.35 20.6705C557.142 20.0833 556.82 19.6122 556.385 19.2571C555.949 18.902 555.4 18.7244 554.737 18.7244C554.069 18.7244 553.515 18.902 553.075 19.2571C552.639 19.6122 552.315 20.0833 552.102 20.6705C551.894 21.2528 551.789 21.892 551.789 22.5881C551.789 23.2888 551.894 23.9304 552.102 24.5128C552.315 25.0952 552.639 25.5616 553.075 25.9119C553.515 26.2623 554.069 26.4375 554.737 26.4375ZM564.309 21.5227V28H562.185V17.0909H564.224V18.8665H564.359C564.61 18.2888 565.003 17.8248 565.538 17.4744C566.077 17.1241 566.757 16.9489 567.576 16.9489C568.319 16.9489 568.97 17.1051 569.529 17.4176C570.088 17.7254 570.521 18.1847 570.829 18.7955C571.137 19.4062 571.29 20.1615 571.29 21.0611V28H569.167V21.3168C569.167 20.526 568.961 19.9081 568.549 19.4631C568.137 19.0133 567.571 18.7884 566.852 18.7884C566.359 18.7884 565.921 18.8949 565.538 19.108C565.159 19.321 564.858 19.6335 564.636 20.0455C564.418 20.4527 564.309 20.9451 564.309 21.5227ZM579.33 17.0909V18.7955H573.165V17.0909H579.33ZM574.856 28V15.8267C574.856 15.1449 575.005 14.5791 575.303 14.1293C575.602 13.6747 575.997 13.3362 576.489 13.1136C576.982 12.8864 577.517 12.7727 578.094 12.7727C578.521 12.7727 578.885 12.8082 579.188 12.8793C579.491 12.9455 579.716 13.0071 579.863 13.0639L579.366 14.7827C579.266 14.7543 579.138 14.7211 578.982 14.6832C578.826 14.6406 578.637 14.6193 578.414 14.6193C577.898 14.6193 577.529 14.7472 577.306 15.0028C577.088 15.2585 576.979 15.6278 576.979 16.1108V28H574.856ZM581.521 28V17.0909H583.645V28H581.521ZM582.594 15.4077C582.224 15.4077 581.907 15.2846 581.642 15.0384C581.382 14.7874 581.251 14.4891 581.251 14.1435C581.251 13.7931 581.382 13.4948 581.642 13.2486C581.907 12.9976 582.224 12.8722 582.594 12.8722C582.963 12.8722 583.278 12.9976 583.538 13.2486C583.804 13.4948 583.936 13.7931 583.936 14.1435C583.936 14.4891 583.804 14.7874 583.538 15.0384C583.278 15.2846 582.963 15.4077 582.594 15.4077ZM586.502 28V17.0909H588.554V18.8239H588.668C588.867 18.2367 589.217 17.7751 589.719 17.4389C590.226 17.098 590.799 16.9276 591.438 16.9276C591.57 16.9276 591.727 16.9323 591.907 16.9418C592.091 16.9512 592.236 16.9631 592.34 16.9773V19.0085C592.255 18.9848 592.103 18.9588 591.885 18.9304C591.667 18.8973 591.45 18.8807 591.232 18.8807C590.73 18.8807 590.283 18.9872 589.89 19.2003C589.501 19.4086 589.194 19.6998 588.966 20.0739C588.739 20.4432 588.625 20.8646 588.625 21.3381V28H586.502ZM594.178 28V17.0909H596.216V18.8665H596.351C596.578 18.2652 596.95 17.7964 597.466 17.4602C597.982 17.1193 598.6 16.9489 599.32 16.9489C600.049 16.9489 600.66 17.1193 601.152 17.4602C601.649 17.8011 602.016 18.2699 602.253 18.8665H602.366C602.627 18.2841 603.041 17.8201 603.609 17.4744C604.178 17.1241 604.855 16.9489 605.641 16.9489C606.63 16.9489 607.438 17.259 608.062 17.8793C608.692 18.4995 609.007 19.4347 609.007 20.6847V28H606.884V20.8835C606.884 20.1449 606.682 19.6098 606.28 19.2784C605.877 18.947 605.397 18.7812 604.838 18.7812C604.147 18.7812 603.609 18.9943 603.226 19.4205C602.842 19.8419 602.651 20.384 602.651 21.0469V28H600.534V20.7486C600.534 20.1567 600.349 19.6809 599.98 19.321C599.611 18.9612 599.13 18.7812 598.538 18.7812C598.136 18.7812 597.764 18.8878 597.423 19.1009C597.087 19.3092 596.815 19.6004 596.607 19.9744C596.403 20.3485 596.301 20.7817 596.301 21.2741V28H594.178ZM615.028 28.2415C614.337 28.2415 613.712 28.1136 613.153 27.858C612.594 27.5975 612.152 27.2211 611.825 26.7287C611.503 26.2363 611.342 25.6326 611.342 24.9176C611.342 24.3021 611.46 23.7955 611.697 23.3977C611.934 23 612.253 22.6851 612.656 22.4531C613.058 22.2211 613.508 22.0459 614.005 21.9276C614.502 21.8092 615.009 21.7192 615.525 21.6577C616.179 21.5819 616.709 21.5204 617.116 21.473C617.523 21.4209 617.819 21.3381 618.004 21.2244C618.189 21.1108 618.281 20.9261 618.281 20.6705V20.6207C618.281 20.0005 618.106 19.5199 617.755 19.179C617.41 18.8381 616.894 18.6676 616.207 18.6676C615.492 18.6676 614.929 18.8262 614.517 19.1435C614.109 19.456 613.828 19.804 613.672 20.1875L611.676 19.733C611.913 19.0701 612.258 18.535 612.713 18.1278C613.172 17.7159 613.7 17.4176 614.297 17.233C614.893 17.0436 615.52 16.9489 616.179 16.9489C616.614 16.9489 617.076 17.0009 617.564 17.1051C618.056 17.2045 618.515 17.3892 618.941 17.6591C619.372 17.929 619.725 18.3149 620 18.8168C620.274 19.3139 620.412 19.9602 620.412 20.7557V28H618.338V26.5085H618.252C618.115 26.7831 617.909 27.053 617.635 27.3182C617.36 27.5833 617.007 27.8035 616.576 27.9787C616.145 28.1539 615.629 28.2415 615.028 28.2415ZM615.49 26.5369C616.077 26.5369 616.579 26.4209 616.995 26.1889C617.417 25.9569 617.736 25.6539 617.954 25.2798C618.177 24.901 618.288 24.4962 618.288 24.0653V22.6591C618.212 22.7348 618.065 22.8059 617.848 22.8722C617.635 22.9337 617.391 22.9882 617.116 23.0355C616.842 23.0781 616.574 23.1184 616.314 23.1562C616.053 23.1894 615.835 23.2178 615.66 23.2415C615.248 23.2936 614.872 23.3812 614.531 23.5043C614.195 23.6274 613.925 23.8049 613.721 24.0369C613.522 24.2642 613.423 24.5672 613.423 24.946C613.423 25.4716 613.617 25.8693 614.005 26.1392C614.394 26.4044 614.888 26.5369 615.49 26.5369ZM627.835 28.2202C626.779 28.2202 625.87 27.9811 625.108 27.5028C624.35 27.0199 623.768 26.3546 623.361 25.5071C622.954 24.6596 622.75 23.6889 622.75 22.5952C622.75 21.4872 622.958 20.5095 623.375 19.6619C623.792 18.8097 624.379 18.1444 625.136 17.6662C625.894 17.188 626.786 16.9489 627.814 16.9489C628.643 16.9489 629.381 17.1027 630.03 17.4105C630.679 17.7135 631.202 18.1397 631.599 18.6889C632.002 19.2382 632.241 19.8797 632.317 20.6136H630.25C630.136 20.1023 629.876 19.6619 629.469 19.2926C629.066 18.9233 628.527 18.7386 627.849 18.7386C627.258 18.7386 626.739 18.8949 626.294 19.2074C625.854 19.5152 625.51 19.9555 625.264 20.5284C625.018 21.0966 624.895 21.7689 624.895 22.5455C624.895 23.3409 625.016 24.0275 625.257 24.6051C625.499 25.1828 625.839 25.6302 626.28 25.9474C626.725 26.2647 627.248 26.4233 627.849 26.4233C628.252 26.4233 628.616 26.3499 628.943 26.2031C629.275 26.0516 629.552 25.8362 629.774 25.5568C630.001 25.2775 630.16 24.9413 630.25 24.5483H632.317C632.241 25.2538 632.011 25.8835 631.628 26.4375C631.244 26.9915 630.731 27.4271 630.087 27.7443C629.447 28.0616 628.697 28.2202 627.835 28.2202ZM627.068 27.9432H628.46L628.347 28.5256C628.759 28.5919 629.118 28.7576 629.426 29.0227C629.734 29.2879 629.888 29.688 629.888 30.223C629.893 30.8622 629.616 31.3807 629.057 31.7784C628.503 32.1761 627.7 32.375 626.649 32.375L626.607 31.1889C627.099 31.1889 627.497 31.1179 627.8 30.9759C628.107 30.8338 628.264 30.6042 628.268 30.2869C628.273 29.9697 628.155 29.7472 627.913 29.6193C627.677 29.4915 627.298 29.4015 626.777 29.3494L627.068 27.9432ZM637.762 28.2415C637.071 28.2415 636.446 28.1136 635.887 27.858C635.329 27.5975 634.886 27.2211 634.559 26.7287C634.237 26.2363 634.076 25.6326 634.076 24.9176C634.076 24.3021 634.195 23.7955 634.431 23.3977C634.668 23 634.988 22.6851 635.39 22.4531C635.793 22.2211 636.243 22.0459 636.74 21.9276C637.237 21.8092 637.743 21.7192 638.26 21.6577C638.913 21.5819 639.443 21.5204 639.85 21.473C640.258 21.4209 640.554 21.3381 640.738 21.2244C640.923 21.1108 641.015 20.9261 641.015 20.6705V20.6207C641.015 20.0005 640.84 19.5199 640.49 19.179C640.144 18.8381 639.628 18.6676 638.941 18.6676C638.226 18.6676 637.663 18.8262 637.251 19.1435C636.844 19.456 636.562 19.804 636.406 20.1875L634.41 19.733C634.647 19.0701 634.993 18.535 635.447 18.1278C635.906 17.7159 636.434 17.4176 637.031 17.233C637.627 17.0436 638.255 16.9489 638.913 16.9489C639.349 16.9489 639.81 17.0009 640.298 17.1051C640.79 17.2045 641.25 17.3892 641.676 17.6591C642.107 17.929 642.459 18.3149 642.734 18.8168C643.009 19.3139 643.146 19.9602 643.146 20.7557V28H641.072V26.5085H640.987C640.85 26.7831 640.644 27.053 640.369 27.3182C640.094 27.5833 639.742 27.8035 639.311 27.9787C638.88 28.1539 638.364 28.2415 637.762 28.2415ZM638.224 26.5369C638.811 26.5369 639.313 26.4209 639.73 26.1889C640.151 25.9569 640.471 25.6539 640.689 25.2798C640.911 24.901 641.022 24.4962 641.022 24.0653V22.6591C640.947 22.7348 640.8 22.8059 640.582 22.8722C640.369 22.9337 640.125 22.9882 639.85 23.0355C639.576 23.0781 639.308 23.1184 639.048 23.1562C638.788 23.1894 638.57 23.2178 638.395 23.2415C637.983 23.2936 637.606 23.3812 637.265 23.5043C636.929 23.6274 636.659 23.8049 636.456 24.0369C636.257 24.2642 636.157 24.5672 636.157 24.946C636.157 25.4716 636.351 25.8693 636.74 26.1392C637.128 26.4044 637.623 26.5369 638.224 26.5369ZM636.889 15.7699L635.461 15.7273C635.461 14.9413 635.672 14.3139 636.093 13.8452C636.52 13.3764 637.045 13.142 637.67 13.142C637.959 13.142 638.212 13.1918 638.43 13.2912C638.648 13.3859 638.851 13.4972 639.041 13.625C639.235 13.7481 639.427 13.8594 639.616 13.9588C639.81 14.0535 640.026 14.1009 640.262 14.1009C640.537 14.1009 640.76 13.9967 640.93 13.7884C641.105 13.58 641.193 13.322 641.193 13.0142L642.592 13.1065C642.592 13.8973 642.379 14.5199 641.953 14.9744C641.527 15.4242 641.003 15.6515 640.383 15.6562C640.047 15.6562 639.768 15.6089 639.545 15.5142C639.327 15.4148 639.133 15.3035 638.963 15.1804C638.792 15.0526 638.617 14.9389 638.437 14.8395C638.257 14.7401 638.042 14.6903 637.791 14.6903C637.526 14.6903 637.308 14.7945 637.137 15.0028C636.972 15.2064 636.889 15.4621 636.889 15.7699ZM650.57 28.2202C649.547 28.2202 648.654 27.9858 647.892 27.517C647.13 27.0483 646.538 26.3925 646.116 25.5497C645.695 24.7069 645.484 23.7221 645.484 22.5952C645.484 21.4635 645.695 20.474 646.116 19.6264C646.538 18.7789 647.13 18.1207 647.892 17.652C648.654 17.1832 649.547 16.9489 650.57 16.9489C651.592 16.9489 652.485 17.1832 653.247 17.652C654.009 18.1207 654.601 18.7789 655.023 19.6264C655.444 20.474 655.655 21.4635 655.655 22.5952C655.655 23.7221 655.444 24.7069 655.023 25.5497C654.601 26.3925 654.009 27.0483 653.247 27.517C652.485 27.9858 651.592 28.2202 650.57 28.2202ZM650.577 26.4375C651.24 26.4375 651.789 26.2623 652.224 25.9119C652.66 25.5616 652.982 25.0952 653.19 24.5128C653.403 23.9304 653.51 23.2888 653.51 22.5881C653.51 21.892 653.403 21.2528 653.19 20.6705C652.982 20.0833 652.66 19.6122 652.224 19.2571C651.789 18.902 651.24 18.7244 650.577 18.7244C649.909 18.7244 649.355 18.902 648.915 19.2571C648.479 19.6122 648.155 20.0833 647.942 20.6705C647.733 21.2528 647.629 21.892 647.629 22.5881C647.629 23.2888 647.733 23.9304 647.942 24.5128C648.155 25.0952 648.479 25.5616 648.915 25.9119C649.355 26.2623 649.909 26.4375 650.577 26.4375ZM667.402 28.2131C666.521 28.2131 665.735 27.9882 665.044 27.5384C664.357 27.0838 663.818 26.4375 663.425 25.5994C663.036 24.7566 662.842 23.7457 662.842 22.5668C662.842 21.3878 663.039 20.3793 663.432 19.5412C663.83 18.7031 664.374 18.0616 665.065 17.6165C665.757 17.1714 666.54 16.9489 667.416 16.9489C668.093 16.9489 668.638 17.0625 669.05 17.2898C669.466 17.5123 669.788 17.7727 670.016 18.071C670.248 18.3693 670.428 18.6321 670.555 18.8594H670.683V13.4545H672.807V28H670.733V26.3026H670.555C670.428 26.5346 670.243 26.7997 670.001 27.098C669.765 27.3963 669.438 27.6567 669.021 27.8793C668.605 28.1018 668.065 28.2131 667.402 28.2131ZM667.871 26.402C668.482 26.402 668.998 26.241 669.419 25.919C669.845 25.5923 670.167 25.1402 670.385 24.5625C670.607 23.9848 670.719 23.3125 670.719 22.5455C670.719 21.7879 670.61 21.125 670.392 20.5568C670.174 19.9886 669.855 19.5459 669.433 19.2287C669.012 18.9115 668.491 18.7528 667.871 18.7528C667.232 18.7528 666.699 18.9186 666.273 19.25C665.847 19.5814 665.525 20.0336 665.307 20.6065C665.094 21.1795 664.987 21.8258 664.987 22.5455C664.987 23.2746 665.096 23.9304 665.314 24.5128C665.532 25.0952 665.854 25.5568 666.28 25.8977C666.711 26.2339 667.241 26.402 667.871 26.402ZM679.012 28.2415C678.321 28.2415 677.696 28.1136 677.137 27.858C676.579 27.5975 676.136 27.2211 675.809 26.7287C675.487 26.2363 675.326 25.6326 675.326 24.9176C675.326 24.3021 675.445 23.7955 675.681 23.3977C675.918 23 676.238 22.6851 676.64 22.4531C677.043 22.2211 677.493 22.0459 677.99 21.9276C678.487 21.8092 678.993 21.7192 679.51 21.6577C680.163 21.5819 680.693 21.5204 681.1 21.473C681.508 21.4209 681.804 21.3381 681.988 21.2244C682.173 21.1108 682.265 20.9261 682.265 20.6705V20.6207C682.265 20.0005 682.09 19.5199 681.74 19.179C681.394 18.8381 680.878 18.6676 680.191 18.6676C679.476 18.6676 678.913 18.8262 678.501 19.1435C678.094 19.456 677.812 19.804 677.656 20.1875L675.66 19.733C675.897 19.0701 676.243 18.535 676.697 18.1278C677.156 17.7159 677.684 17.4176 678.281 17.233C678.877 17.0436 679.505 16.9489 680.163 16.9489C680.599 16.9489 681.06 17.0009 681.548 17.1051C682.04 17.2045 682.5 17.3892 682.926 17.6591C683.357 17.929 683.709 18.3149 683.984 18.8168C684.259 19.3139 684.396 19.9602 684.396 20.7557V28H682.322V26.5085H682.237C682.1 26.7831 681.894 27.053 681.619 27.3182C681.344 27.5833 680.992 27.8035 680.561 27.9787C680.13 28.1539 679.614 28.2415 679.012 28.2415ZM679.474 26.5369C680.061 26.5369 680.563 26.4209 680.98 26.1889C681.401 25.9569 681.721 25.6539 681.939 25.2798C682.161 24.901 682.272 24.4962 682.272 24.0653V22.6591C682.197 22.7348 682.05 22.8059 681.832 22.8722C681.619 22.9337 681.375 22.9882 681.1 23.0355C680.826 23.0781 680.558 23.1184 680.298 23.1562C680.038 23.1894 679.82 23.2178 679.645 23.2415C679.233 23.2936 678.856 23.3812 678.515 23.5043C678.179 23.6274 677.909 23.8049 677.706 24.0369C677.507 24.2642 677.407 24.5672 677.407 24.946C677.407 25.4716 677.601 25.8693 677.99 26.1392C678.378 26.4044 678.873 26.5369 679.474 26.5369ZM697.113 28.2202C696.057 28.2202 695.148 27.9811 694.385 27.5028C693.628 27.0199 693.045 26.3546 692.638 25.5071C692.231 24.6596 692.027 23.6889 692.027 22.5952C692.027 21.4872 692.236 20.5095 692.652 19.6619C693.069 18.8097 693.656 18.1444 694.414 17.6662C695.171 17.188 696.064 16.9489 697.091 16.9489C697.92 16.9489 698.658 17.1027 699.307 17.4105C699.956 17.7135 700.479 18.1397 700.877 18.6889C701.279 19.2382 701.518 19.8797 701.594 20.6136H699.527C699.414 20.1023 699.153 19.6619 698.746 19.2926C698.344 18.9233 697.804 18.7386 697.127 18.7386C696.535 18.7386 696.016 18.8949 695.571 19.2074C695.131 19.5152 694.788 19.9555 694.542 20.5284C694.295 21.0966 694.172 21.7689 694.172 22.5455C694.172 23.3409 694.293 24.0275 694.534 24.6051C694.776 25.1828 695.117 25.6302 695.557 25.9474C696.002 26.2647 696.525 26.4233 697.127 26.4233C697.529 26.4233 697.894 26.3499 698.221 26.2031C698.552 26.0516 698.829 25.8362 699.051 25.5568C699.279 25.2775 699.437 24.9413 699.527 24.5483H701.594C701.518 25.2538 701.289 25.8835 700.905 26.4375C700.522 26.9915 700.008 27.4271 699.364 27.7443C698.725 28.0616 697.974 28.2202 697.113 28.2202ZM708.46 28.2202C707.438 28.2202 706.545 27.9858 705.783 27.517C705.02 27.0483 704.429 26.3925 704.007 25.5497C703.586 24.7069 703.375 23.7221 703.375 22.5952C703.375 21.4635 703.586 20.474 704.007 19.6264C704.429 18.7789 705.02 18.1207 705.783 17.652C706.545 17.1832 707.438 16.9489 708.46 16.9489C709.483 16.9489 710.375 17.1832 711.138 17.652C711.9 18.1207 712.492 18.7789 712.913 19.6264C713.335 20.474 713.545 21.4635 713.545 22.5952C713.545 23.7221 713.335 24.7069 712.913 25.5497C712.492 26.3925 711.9 27.0483 711.138 27.517C710.375 27.9858 709.483 28.2202 708.46 28.2202ZM708.467 26.4375C709.13 26.4375 709.679 26.2623 710.115 25.9119C710.551 25.5616 710.873 25.0952 711.081 24.5128C711.294 23.9304 711.401 23.2888 711.401 22.5881C711.401 21.892 711.294 21.2528 711.081 20.6705C710.873 20.0833 710.551 19.6122 710.115 19.2571C709.679 18.902 709.13 18.7244 708.467 18.7244C707.8 18.7244 707.246 18.902 706.805 19.2571C706.37 19.6122 706.045 20.0833 705.832 20.6705C705.624 21.2528 705.52 21.892 705.52 22.5881C705.52 23.2888 705.624 23.9304 705.832 24.5128C706.045 25.0952 706.37 25.5616 706.805 25.9119C707.246 26.2623 707.8 26.4375 708.467 26.4375ZM715.916 28V17.0909H717.954V18.8665H718.089C718.316 18.2652 718.688 17.7964 719.204 17.4602C719.72 17.1193 720.338 16.9489 721.058 16.9489C721.787 16.9489 722.398 17.1193 722.89 17.4602C723.387 17.8011 723.754 18.2699 723.991 18.8665H724.105C724.365 18.2841 724.779 17.8201 725.348 17.4744C725.916 17.1241 726.593 16.9489 727.379 16.9489C728.368 16.9489 729.176 17.259 729.801 17.8793C730.431 18.4995 730.745 19.4347 730.745 20.6847V28H728.622V20.8835C728.622 20.1449 728.421 19.6098 728.018 19.2784C727.616 18.947 727.135 18.7812 726.576 18.7812C725.885 18.7812 725.348 18.9943 724.964 19.4205C724.581 19.8419 724.389 20.384 724.389 21.0469V28H722.272V20.7486C722.272 20.1567 722.088 19.6809 721.718 19.321C721.349 18.9612 720.868 18.7812 720.277 18.7812C719.874 18.7812 719.502 18.8878 719.162 19.1009C718.825 19.3092 718.553 19.6004 718.345 19.9744C718.141 20.3485 718.039 20.7817 718.039 21.2741V28H715.916ZM733.592 32.0909V17.0909H735.665V18.8594H735.843C735.966 18.6321 736.144 18.3693 736.376 18.071C736.608 17.7727 736.93 17.5123 737.342 17.2898C737.754 17.0625 738.298 16.9489 738.975 16.9489C739.856 16.9489 740.642 17.1714 741.333 17.6165C742.024 18.0616 742.567 18.7031 742.96 19.5412C743.357 20.3793 743.556 21.3878 743.556 22.5668C743.556 23.7457 743.36 24.7566 742.967 25.5994C742.574 26.4375 742.034 27.0838 741.347 27.5384C740.661 27.9882 739.877 28.2131 738.996 28.2131C738.334 28.2131 737.791 28.1018 737.37 27.8793C736.953 27.6567 736.627 27.3963 736.39 27.098C736.153 26.7997 735.971 26.5346 735.843 26.3026H735.715V32.0909H733.592ZM735.673 22.5455C735.673 23.3125 735.784 23.9848 736.006 24.5625C736.229 25.1402 736.551 25.5923 736.972 25.919C737.394 26.241 737.91 26.402 738.521 26.402C739.155 26.402 739.685 26.2339 740.112 25.8977C740.538 25.5568 740.86 25.0952 741.077 24.5128C741.3 23.9304 741.411 23.2746 741.411 22.5455C741.411 21.8258 741.302 21.1795 741.085 20.6065C740.871 20.0336 740.549 19.5814 740.119 19.25C739.692 18.9186 739.16 18.7528 738.521 18.7528C737.905 18.7528 737.384 18.9115 736.958 19.2287C736.537 19.5459 736.217 19.9886 735.999 20.5568C735.781 21.125 735.673 21.7879 735.673 22.5455ZM745.935 28V17.0909H747.988V18.8239H748.102C748.3 18.2367 748.651 17.7751 749.153 17.4389C749.659 17.098 750.232 16.9276 750.871 16.9276C751.004 16.9276 751.16 16.9323 751.34 16.9418C751.525 16.9512 751.669 16.9631 751.773 16.9773V19.0085C751.688 18.9848 751.537 18.9588 751.319 18.9304C751.101 18.8973 750.883 18.8807 750.665 18.8807C750.164 18.8807 749.716 18.9872 749.323 19.2003C748.935 19.4086 748.627 19.6998 748.4 20.0739C748.173 20.4432 748.059 20.8646 748.059 21.3381V28H745.935ZM756.688 28.2415C755.997 28.2415 755.372 28.1136 754.813 27.858C754.254 27.5975 753.812 27.2211 753.485 26.7287C753.163 26.2363 753.002 25.6326 753.002 24.9176C753.002 24.3021 753.121 23.7955 753.357 23.3977C753.594 23 753.914 22.6851 754.316 22.4531C754.719 22.2211 755.168 22.0459 755.665 21.9276C756.163 21.8092 756.669 21.7192 757.185 21.6577C757.839 21.5819 758.369 21.5204 758.776 21.473C759.183 21.4209 759.479 21.3381 759.664 21.2244C759.849 21.1108 759.941 20.9261 759.941 20.6705V20.6207C759.941 20.0005 759.766 19.5199 759.415 19.179C759.07 18.8381 758.554 18.6676 757.867 18.6676C757.152 18.6676 756.589 18.8262 756.177 19.1435C755.77 19.456 755.488 19.804 755.332 20.1875L753.336 19.733C753.573 19.0701 753.918 18.535 754.373 18.1278C754.832 17.7159 755.36 17.4176 755.957 17.233C756.553 17.0436 757.181 16.9489 757.839 16.9489C758.274 16.9489 758.736 17.0009 759.224 17.1051C759.716 17.2045 760.175 17.3892 760.602 17.6591C761.032 17.929 761.385 18.3149 761.66 18.8168C761.934 19.3139 762.072 19.9602 762.072 20.7557V28H759.998V26.5085H759.913C759.775 26.7831 759.569 27.053 759.295 27.3182C759.02 27.5833 758.667 27.8035 758.237 27.9787C757.806 28.1539 757.29 28.2415 756.688 28.2415ZM757.15 26.5369C757.737 26.5369 758.239 26.4209 758.656 26.1889C759.077 25.9569 759.397 25.6539 759.614 25.2798C759.837 24.901 759.948 24.4962 759.948 24.0653V22.6591C759.872 22.7348 759.726 22.8059 759.508 22.8722C759.295 22.9337 759.051 22.9882 758.776 23.0355C758.502 23.0781 758.234 23.1184 757.974 23.1562C757.713 23.1894 757.496 23.2178 757.32 23.2415C756.908 23.2936 756.532 23.3812 756.191 23.5043C755.855 23.6274 755.585 23.8049 755.381 24.0369C755.183 24.2642 755.083 24.5672 755.083 24.946C755.083 25.4716 755.277 25.8693 755.665 26.1392C756.054 26.4044 756.549 26.5369 757.15 26.5369Z" fill="#2D96CD"/>
<path d="M498.172 1H774V19.5V41H498.172L525.573 21.8192L526.744 21L525.573 20.1808L498.172 1Z" stroke="#2D96CD" stroke-width="2"/>
<path d="M498.685 41H252.172L279.573 21.8192L280.744 21L279.573 20.1808L252.172 1H498.685L527.256 21L498.685 41Z" fill="#22539B" stroke="#22539B" stroke-width="2"/>
<path d="M298.598 28V13.4545H303.783C304.91 13.4545 305.845 13.6487 306.588 14.0369C307.336 14.4252 307.895 14.9626 308.264 15.6491C308.634 16.331 308.818 17.1193 308.818 18.0142C308.818 18.9044 308.631 19.688 308.257 20.3651C307.888 21.0374 307.329 21.5606 306.581 21.9347C305.838 22.3087 304.902 22.4957 303.776 22.4957H299.848V20.6065H303.577C304.287 20.6065 304.865 20.5047 305.31 20.3011C305.759 20.0975 306.089 19.8016 306.297 19.4134C306.505 19.0251 306.609 18.5587 306.609 18.0142C306.609 17.465 306.503 16.9891 306.29 16.5866C306.081 16.1842 305.752 15.8764 305.303 15.6634C304.857 15.4455 304.273 15.3366 303.548 15.3366H300.793V28H298.598ZM305.778 21.4375L309.372 28H306.872L303.349 21.4375H305.778ZM315.883 28.2202C314.808 28.2202 313.883 27.9905 313.106 27.5312C312.334 27.0672 311.738 26.4162 311.316 25.5781C310.9 24.7353 310.691 23.7481 310.691 22.6165C310.691 21.4991 310.9 20.5142 311.316 19.6619C311.738 18.8097 312.325 18.1444 313.078 17.6662C313.835 17.188 314.721 16.9489 315.734 16.9489C316.35 16.9489 316.946 17.0507 317.524 17.2543C318.101 17.4579 318.62 17.7775 319.079 18.2131C319.538 18.6487 319.901 19.2145 320.166 19.9105C320.431 20.6018 320.564 21.4422 320.564 22.4318V23.1847H311.892V21.5938H318.483C318.483 21.035 318.369 20.5402 318.142 20.1094C317.914 19.6738 317.595 19.3305 317.183 19.0795C316.776 18.8286 316.297 18.7031 315.748 18.7031C315.152 18.7031 314.631 18.8499 314.186 19.1435C313.745 19.4323 313.404 19.8111 313.163 20.2798C312.926 20.7438 312.808 21.2481 312.808 21.7926V23.0355C312.808 23.7647 312.936 24.3849 313.191 24.8963C313.452 25.4077 313.814 25.7983 314.278 26.0682C314.742 26.3333 315.284 26.4659 315.904 26.4659C316.307 26.4659 316.674 26.4091 317.005 26.2955C317.337 26.1771 317.623 26.0019 317.865 25.7699C318.106 25.5379 318.291 25.2514 318.419 24.9105L320.429 25.2727C320.268 25.8646 319.979 26.383 319.562 26.8281C319.15 27.2685 318.632 27.6117 318.007 27.858C317.386 28.0994 316.679 28.2202 315.883 28.2202ZM331.94 17.0909L327.984 28H325.711L321.748 17.0909H324.028L326.79 25.4858H326.904L329.66 17.0909H331.94ZM333.935 28V17.0909H336.059V28H333.935ZM335.008 15.4077C334.638 15.4077 334.321 15.2846 334.056 15.0384C333.796 14.7874 333.665 14.4891 333.665 14.1435C333.665 13.7931 333.796 13.4948 334.056 13.2486C334.321 12.9976 334.638 12.8722 335.008 12.8722C335.377 12.8722 335.692 12.9976 335.952 13.2486C336.218 13.4948 336.35 13.7931 336.35 14.1435C336.35 14.4891 336.218 14.7874 335.952 15.0384C335.692 15.2846 335.377 15.4077 335.008 15.4077ZM347.091 19.7543L345.166 20.0952C345.085 19.849 344.958 19.6146 344.782 19.392C344.612 19.1695 344.38 18.9872 344.086 18.8452C343.793 18.7031 343.426 18.6321 342.985 18.6321C342.384 18.6321 341.882 18.767 341.48 19.0369C341.077 19.3021 340.876 19.6454 340.876 20.0668C340.876 20.4313 341.011 20.7249 341.281 20.9474C341.551 21.17 341.986 21.3523 342.588 21.4943L344.321 21.892C345.324 22.1241 346.073 22.4815 346.565 22.9645C347.057 23.4474 347.304 24.0748 347.304 24.8466C347.304 25.5 347.114 26.0824 346.735 26.5938C346.361 27.1004 345.838 27.4981 345.166 27.7869C344.498 28.0758 343.724 28.2202 342.843 28.2202C341.622 28.2202 340.625 27.9598 339.853 27.4389C339.082 26.9134 338.608 26.1676 338.433 25.2017L340.485 24.8892C340.613 25.4242 340.876 25.8291 341.274 26.1037C341.672 26.3736 342.19 26.5085 342.829 26.5085C343.525 26.5085 344.082 26.3641 344.498 26.0753C344.915 25.7817 345.123 25.4242 345.123 25.0028C345.123 24.6619 344.995 24.3755 344.74 24.1435C344.489 23.9115 344.103 23.7363 343.582 23.6179L341.735 23.2131C340.717 22.9811 339.965 22.6117 339.477 22.1051C338.994 21.5985 338.752 20.9569 338.752 20.1804C338.752 19.5365 338.932 18.973 339.292 18.4901C339.652 18.0071 340.149 17.6307 340.784 17.3608C341.418 17.0862 342.145 16.9489 342.964 16.9489C344.143 16.9489 345.071 17.2045 345.748 17.7159C346.425 18.2225 346.873 18.902 347.091 19.7543ZM352.813 28.2415C352.122 28.2415 351.497 28.1136 350.938 27.858C350.379 27.5975 349.937 27.2211 349.61 26.7287C349.288 26.2363 349.127 25.6326 349.127 24.9176C349.127 24.3021 349.246 23.7955 349.482 23.3977C349.719 23 350.039 22.6851 350.441 22.4531C350.844 22.2211 351.293 22.0459 351.79 21.9276C352.288 21.8092 352.794 21.7192 353.31 21.6577C353.964 21.5819 354.494 21.5204 354.901 21.473C355.308 21.4209 355.604 21.3381 355.789 21.2244C355.974 21.1108 356.066 20.9261 356.066 20.6705V20.6207C356.066 20.0005 355.891 19.5199 355.54 19.179C355.195 18.8381 354.679 18.6676 353.992 18.6676C353.277 18.6676 352.714 18.8262 352.302 19.1435C351.895 19.456 351.613 19.804 351.457 20.1875L349.461 19.733C349.698 19.0701 350.043 18.535 350.498 18.1278C350.957 17.7159 351.485 17.4176 352.082 17.233C352.678 17.0436 353.306 16.9489 353.964 16.9489C354.399 16.9489 354.861 17.0009 355.349 17.1051C355.841 17.2045 356.3 17.3892 356.727 17.6591C357.157 17.929 357.51 18.3149 357.785 18.8168C358.059 19.3139 358.197 19.9602 358.197 20.7557V28H356.123V26.5085H356.038C355.9 26.7831 355.694 27.053 355.42 27.3182C355.145 27.5833 354.792 27.8035 354.362 27.9787C353.931 28.1539 353.415 28.2415 352.813 28.2415ZM353.275 26.5369C353.862 26.5369 354.364 26.4209 354.781 26.1889C355.202 25.9569 355.522 25.6539 355.739 25.2798C355.962 24.901 356.073 24.4962 356.073 24.0653V22.6591C355.997 22.7348 355.851 22.8059 355.633 22.8722C355.42 22.9337 355.176 22.9882 354.901 23.0355C354.627 23.0781 354.359 23.1184 354.099 23.1562C353.838 23.1894 353.621 23.2178 353.445 23.2415C353.033 23.2936 352.657 23.3812 352.316 23.5043C351.98 23.6274 351.71 23.8049 351.506 24.0369C351.308 24.2642 351.208 24.5672 351.208 24.946C351.208 25.4716 351.402 25.8693 351.79 26.1392C352.179 26.4044 352.674 26.5369 353.275 26.5369ZM361.025 28V17.0909H363.078V18.8239H363.191C363.39 18.2367 363.741 17.7751 364.243 17.4389C364.749 17.098 365.322 16.9276 365.961 16.9276C366.094 16.9276 366.25 16.9323 366.43 16.9418C366.615 16.9512 366.759 16.9631 366.863 16.9773V19.0085C366.778 18.9848 366.627 18.9588 366.409 18.9304C366.191 18.8973 365.973 18.8807 365.755 18.8807C365.253 18.8807 364.806 18.9872 364.413 19.2003C364.025 19.4086 363.717 19.6998 363.49 20.0739C363.262 20.4432 363.149 20.8646 363.149 21.3381V28H361.025ZM373.994 28V17.0909H376.118V28H373.994ZM375.066 15.4077C374.697 15.4077 374.38 15.2846 374.115 15.0384C373.854 14.7874 373.724 14.4891 373.724 14.1435C373.724 13.7931 373.854 13.4948 374.115 13.2486C374.38 12.9976 374.697 12.8722 375.066 12.8722C375.436 12.8722 375.751 12.9976 376.011 13.2486C376.276 13.4948 376.409 13.7931 376.409 14.1435C376.409 14.4891 376.276 14.7874 376.011 15.0384C375.751 15.2846 375.436 15.4077 375.066 15.4077ZM381.098 21.5227V28H378.974V17.0909H381.013V18.8665H381.148C381.399 18.2888 381.792 17.8248 382.327 17.4744C382.866 17.1241 383.546 16.9489 384.365 16.9489C385.108 16.9489 385.759 17.1051 386.318 17.4176C386.877 17.7254 387.31 18.1847 387.618 18.7955C387.926 19.4062 388.08 20.1615 388.08 21.0611V28H385.956V21.3168C385.956 20.526 385.75 19.9081 385.338 19.4631C384.926 19.0133 384.36 18.7884 383.641 18.7884C383.148 18.7884 382.71 18.8949 382.327 19.108C381.948 19.321 381.647 19.6335 381.425 20.0455C381.207 20.4527 381.098 20.9451 381.098 21.5227ZM396.119 17.0909V18.7955H389.955V17.0909H396.119ZM391.645 28V15.8267C391.645 15.1449 391.794 14.5791 392.092 14.1293C392.391 13.6747 392.786 13.3362 393.278 13.1136C393.771 12.8864 394.306 12.7727 394.884 12.7727C395.31 12.7727 395.674 12.8082 395.977 12.8793C396.28 12.9455 396.505 13.0071 396.652 13.0639L396.155 14.7827C396.055 14.7543 395.928 14.7211 395.771 14.6832C395.615 14.6406 395.426 14.6193 395.203 14.6193C394.687 14.6193 394.318 14.7472 394.095 15.0028C393.877 15.2585 393.768 15.6278 393.768 16.1108V28H391.645ZM402.476 28.2202C401.453 28.2202 400.561 27.9858 399.798 27.517C399.036 27.0483 398.444 26.3925 398.023 25.5497C397.601 24.7069 397.391 23.7221 397.391 22.5952C397.391 21.4635 397.601 20.474 398.023 19.6264C398.444 18.7789 399.036 18.1207 399.798 17.652C400.561 17.1832 401.453 16.9489 402.476 16.9489C403.499 16.9489 404.391 17.1832 405.153 17.652C405.916 18.1207 406.508 18.7789 406.929 19.6264C407.35 20.474 407.561 21.4635 407.561 22.5952C407.561 23.7221 407.35 24.7069 406.929 25.5497C406.508 26.3925 405.916 27.0483 405.153 27.517C404.391 27.9858 403.499 28.2202 402.476 28.2202ZM402.483 26.4375C403.146 26.4375 403.695 26.2623 404.131 25.9119C404.566 25.5616 404.888 25.0952 405.097 24.5128C405.31 23.9304 405.416 23.2888 405.416 22.5881C405.416 21.892 405.31 21.2528 405.097 20.6705C404.888 20.0833 404.566 19.6122 404.131 19.2571C403.695 18.902 403.146 18.7244 402.483 18.7244C401.815 18.7244 401.261 18.902 400.821 19.2571C400.385 19.6122 400.061 20.0833 399.848 20.6705C399.64 21.2528 399.536 21.892 399.536 22.5881C399.536 23.2888 399.64 23.9304 399.848 24.5128C400.061 25.0952 400.385 25.5616 400.821 25.9119C401.261 26.2623 401.815 26.4375 402.483 26.4375ZM409.931 28V17.0909H411.984V18.8239H412.098C412.297 18.2367 412.647 17.7751 413.149 17.4389C413.655 17.098 414.228 16.9276 414.868 16.9276C415 16.9276 415.156 16.9323 415.336 16.9418C415.521 16.9512 415.665 16.9631 415.77 16.9773V19.0085C415.684 18.9848 415.533 18.9588 415.315 18.9304C415.097 18.8973 414.879 18.8807 414.662 18.8807C414.16 18.8807 413.712 18.9872 413.319 19.2003C412.931 19.4086 412.623 19.6998 412.396 20.0739C412.169 20.4432 412.055 20.8646 412.055 21.3381V28H409.931ZM417.607 28V17.0909H419.646V18.8665H419.781C420.008 18.2652 420.379 17.7964 420.896 17.4602C421.412 17.1193 422.03 16.9489 422.749 16.9489C423.478 16.9489 424.089 17.1193 424.582 17.4602C425.079 17.8011 425.446 18.2699 425.683 18.8665H425.796C426.057 18.2841 426.471 17.8201 427.039 17.4744C427.607 17.1241 428.284 16.9489 429.07 16.9489C430.06 16.9489 430.867 17.259 431.492 17.8793C432.122 18.4995 432.437 19.4347 432.437 20.6847V28H430.313V20.8835C430.313 20.1449 430.112 19.6098 429.71 19.2784C429.307 18.947 428.826 18.7812 428.268 18.7812C427.576 18.7812 427.039 18.9943 426.656 19.4205C426.272 19.8419 426.08 20.384 426.08 21.0469V28H423.964V20.7486C423.964 20.1567 423.779 19.6809 423.41 19.321C423.04 18.9612 422.56 18.7812 421.968 18.7812C421.566 18.7812 421.194 18.8878 420.853 19.1009C420.517 19.3092 420.245 19.6004 420.036 19.9744C419.833 20.3485 419.731 20.7817 419.731 21.2741V28H417.607ZM438.458 28.2415C437.766 28.2415 437.141 28.1136 436.583 27.858C436.024 27.5975 435.581 27.2211 435.255 26.7287C434.933 26.2363 434.772 25.6326 434.772 24.9176C434.772 24.3021 434.89 23.7955 435.127 23.3977C435.364 23 435.683 22.6851 436.086 22.4531C436.488 22.2211 436.938 22.0459 437.435 21.9276C437.932 21.8092 438.439 21.7192 438.955 21.6577C439.608 21.5819 440.139 21.5204 440.546 21.473C440.953 21.4209 441.249 21.3381 441.434 21.2244C441.618 21.1108 441.711 20.9261 441.711 20.6705V20.6207C441.711 20.0005 441.535 19.5199 441.185 19.179C440.839 18.8381 440.323 18.6676 439.637 18.6676C438.922 18.6676 438.358 18.8262 437.946 19.1435C437.539 19.456 437.257 19.804 437.101 20.1875L435.105 19.733C435.342 19.0701 435.688 18.535 436.142 18.1278C436.602 17.7159 437.13 17.4176 437.726 17.233C438.323 17.0436 438.95 16.9489 439.608 16.9489C440.044 16.9489 440.506 17.0009 440.993 17.1051C441.486 17.2045 441.945 17.3892 442.371 17.6591C442.802 17.929 443.155 18.3149 443.429 18.8168C443.704 19.3139 443.841 19.9602 443.841 20.7557V28H441.767V26.5085H441.682C441.545 26.7831 441.339 27.053 441.064 27.3182C440.79 27.5833 440.437 27.8035 440.006 27.9787C439.575 28.1539 439.059 28.2415 438.458 28.2415ZM438.919 26.5369C439.507 26.5369 440.008 26.4209 440.425 26.1889C440.846 25.9569 441.166 25.6539 441.384 25.2798C441.606 24.901 441.718 24.4962 441.718 24.0653V22.6591C441.642 22.7348 441.495 22.8059 441.277 22.8722C441.064 22.9337 440.82 22.9882 440.546 23.0355C440.271 23.0781 440.004 23.1184 439.743 23.1562C439.483 23.1894 439.265 23.2178 439.09 23.2415C438.678 23.2936 438.301 23.3812 437.961 23.5043C437.624 23.6274 437.355 23.8049 437.151 24.0369C436.952 24.2642 436.853 24.5672 436.853 24.946C436.853 25.4716 437.047 25.8693 437.435 26.1392C437.823 26.4044 438.318 26.5369 438.919 26.5369ZM451.265 28.2202C450.209 28.2202 449.3 27.9811 448.538 27.5028C447.78 27.0199 447.198 26.3546 446.79 25.5071C446.383 24.6596 446.18 23.6889 446.18 22.5952C446.18 21.4872 446.388 20.5095 446.805 19.6619C447.221 18.8097 447.808 18.1444 448.566 17.6662C449.324 17.188 450.216 16.9489 451.244 16.9489C452.072 16.9489 452.811 17.1027 453.46 17.4105C454.108 17.7135 454.631 18.1397 455.029 18.6889C455.432 19.2382 455.671 19.8797 455.746 20.6136H453.68C453.566 20.1023 453.306 19.6619 452.898 19.2926C452.496 18.9233 451.956 18.7386 451.279 18.7386C450.687 18.7386 450.169 18.8949 449.724 19.2074C449.283 19.5152 448.94 19.9555 448.694 20.5284C448.448 21.0966 448.325 21.7689 448.325 22.5455C448.325 23.3409 448.445 24.0275 448.687 24.6051C448.928 25.1828 449.269 25.6302 449.71 25.9474C450.155 26.2647 450.678 26.4233 451.279 26.4233C451.682 26.4233 452.046 26.3499 452.373 26.2031C452.704 26.0516 452.981 25.8362 453.204 25.5568C453.431 25.2775 453.59 24.9413 453.68 24.5483H455.746C455.671 25.2538 455.441 25.8835 455.058 26.4375C454.674 26.9915 454.16 27.4271 453.516 27.7443C452.877 28.0616 452.127 28.2202 451.265 28.2202ZM450.498 27.9432H451.89L451.776 28.5256C452.188 28.5919 452.548 28.7576 452.856 29.0227C453.164 29.2879 453.317 29.688 453.317 30.223C453.322 30.8622 453.045 31.3807 452.487 31.7784C451.933 32.1761 451.13 32.375 450.079 32.375L450.036 31.1889C450.529 31.1889 450.926 31.1179 451.229 30.9759C451.537 30.8338 451.693 30.6042 451.698 30.2869C451.703 29.9697 451.585 29.7472 451.343 29.6193C451.106 29.4915 450.728 29.4015 450.207 29.3494L450.498 27.9432ZM462.613 28.2202C461.59 28.2202 460.697 27.9858 459.935 27.517C459.173 27.0483 458.581 26.3925 458.159 25.5497C457.738 24.7069 457.527 23.7221 457.527 22.5952C457.527 21.4635 457.738 20.474 458.159 19.6264C458.581 18.7789 459.173 18.1207 459.935 17.652C460.697 17.1832 461.59 16.9489 462.613 16.9489C463.635 16.9489 464.528 17.1832 465.29 17.652C466.052 18.1207 466.644 18.7789 467.066 19.6264C467.487 20.474 467.698 21.4635 467.698 22.5952C467.698 23.7221 467.487 24.7069 467.066 25.5497C466.644 26.3925 466.052 27.0483 465.29 27.517C464.528 27.9858 463.635 28.2202 462.613 28.2202ZM462.62 26.4375C463.283 26.4375 463.832 26.2623 464.267 25.9119C464.703 25.5616 465.025 25.0952 465.233 24.5128C465.446 23.9304 465.553 23.2888 465.553 22.5881C465.553 21.892 465.446 21.2528 465.233 20.6705C465.025 20.0833 464.703 19.6122 464.267 19.2571C463.832 18.902 463.283 18.7244 462.62 18.7244C461.952 18.7244 461.398 18.902 460.958 19.2571C460.522 19.6122 460.198 20.0833 459.985 20.6705C459.776 21.2528 459.672 21.892 459.672 22.5881C459.672 23.2888 459.776 23.9304 459.985 24.5128C460.198 25.0952 460.522 25.5616 460.958 25.9119C461.398 26.2623 461.952 26.4375 462.62 26.4375ZM460.475 15.7699L459.047 15.7273C459.047 14.9413 459.258 14.3139 459.679 13.8452C460.105 13.3764 460.631 13.142 461.256 13.142C461.545 13.142 461.798 13.1918 462.016 13.2912C462.234 13.3859 462.437 13.4972 462.627 13.625C462.821 13.7481 463.013 13.8594 463.202 13.9588C463.396 14.0535 463.612 14.1009 463.848 14.1009C464.123 14.1009 464.346 13.9967 464.516 13.7884C464.691 13.58 464.779 13.322 464.779 13.0142L466.178 13.1065C466.178 13.8973 465.965 14.5199 465.539 14.9744C465.113 15.4242 464.589 15.6515 463.969 15.6562C463.633 15.6562 463.354 15.6089 463.131 15.5142C462.913 15.4148 462.719 15.3035 462.549 15.1804C462.378 15.0526 462.203 14.9389 462.023 14.8395C461.843 14.7401 461.628 14.6903 461.377 14.6903C461.112 14.6903 460.894 14.7945 460.723 15.0028C460.558 15.2064 460.475 15.4621 460.475 15.7699ZM474.77 28.2202C473.695 28.2202 472.769 27.9905 471.993 27.5312C471.221 27.0672 470.625 26.4162 470.203 25.5781C469.786 24.7353 469.578 23.7481 469.578 22.6165C469.578 21.4991 469.786 20.5142 470.203 19.6619C470.625 18.8097 471.212 18.1444 471.964 17.6662C472.722 17.188 473.607 16.9489 474.621 16.9489C475.236 16.9489 475.833 17.0507 476.411 17.2543C476.988 17.4579 477.507 17.7775 477.966 18.2131C478.425 18.6487 478.787 19.2145 479.053 19.9105C479.318 20.6018 479.45 21.4422 479.45 22.4318V23.1847H470.778V21.5938H477.369C477.369 21.035 477.256 20.5402 477.028 20.1094C476.801 19.6738 476.482 19.3305 476.07 19.0795C475.662 18.8286 475.184 18.7031 474.635 18.7031C474.038 18.7031 473.518 18.8499 473.072 19.1435C472.632 19.4323 472.291 19.8111 472.05 20.2798C471.813 20.7438 471.695 21.2481 471.695 21.7926V23.0355C471.695 23.7647 471.822 24.3849 472.078 24.8963C472.339 25.4077 472.701 25.7983 473.165 26.0682C473.629 26.3333 474.171 26.4659 474.791 26.4659C475.194 26.4659 475.561 26.4091 475.892 26.2955C476.223 26.1771 476.51 26.0019 476.751 25.7699C476.993 25.5379 477.178 25.2514 477.305 24.9105L479.315 25.2727C479.154 25.8646 478.866 26.383 478.449 26.8281C478.037 27.2685 477.518 27.6117 476.893 27.858C476.273 28.0994 475.565 28.2202 474.77 28.2202ZM489.981 19.7543L488.056 20.0952C487.976 19.849 487.848 19.6146 487.673 19.392C487.502 19.1695 487.27 18.9872 486.977 18.8452C486.683 18.7031 486.316 18.6321 485.876 18.6321C485.275 18.6321 484.773 18.767 484.37 19.0369C483.968 19.3021 483.767 19.6454 483.767 20.0668C483.767 20.4313 483.902 20.7249 484.172 20.9474C484.441 21.17 484.877 21.3523 485.478 21.4943L487.211 21.892C488.215 22.1241 488.963 22.4815 489.456 22.9645C489.948 23.4474 490.194 24.0748 490.194 24.8466C490.194 25.5 490.005 26.0824 489.626 26.5938C489.252 27.1004 488.729 27.4981 488.056 27.7869C487.389 28.0758 486.615 28.2202 485.734 28.2202C484.512 28.2202 483.516 27.9598 482.744 27.4389C481.972 26.9134 481.499 26.1676 481.324 25.2017L483.376 24.8892C483.504 25.4242 483.767 25.8291 484.164 26.1037C484.562 26.3736 485.081 26.5085 485.72 26.5085C486.416 26.5085 486.972 26.3641 487.389 26.0753C487.806 25.7817 488.014 25.4242 488.014 25.0028C488.014 24.6619 487.886 24.3755 487.63 24.1435C487.379 23.9115 486.993 23.7363 486.473 23.6179L484.626 23.2131C483.608 22.9811 482.855 22.6117 482.368 22.1051C481.885 21.5985 481.643 20.9569 481.643 20.1804C481.643 19.5365 481.823 18.973 482.183 18.4901C482.543 18.0071 483.04 17.6307 483.674 17.3608C484.309 17.0862 485.036 16.9489 485.855 16.9489C487.034 16.9489 487.962 17.2045 488.639 17.7159C489.316 18.2225 489.763 18.902 489.981 19.7543Z" fill="white"/>
</svg>
