<svg width="775" height="42" viewBox="0 0 775 42" fill="none" xmlns="http://www.w3.org/2000/svg">
<path d="M291.598 28V13.4545H296.783C297.91 13.4545 298.845 13.6487 299.588 14.0369C300.336 14.4252 300.895 14.9626 301.264 15.6491C301.634 16.331 301.818 17.1193 301.818 18.0142C301.818 18.9044 301.631 19.688 301.257 20.3651C300.888 21.0374 300.329 21.5606 299.581 21.9347C298.838 22.3087 297.902 22.4957 296.776 22.4957H292.848V20.6065H296.577C297.287 20.6065 297.865 20.5047 298.31 20.3011C298.759 20.0975 299.089 19.8016 299.297 19.4134C299.505 19.0251 299.609 18.5587 299.609 18.0142C299.609 17.465 299.503 16.9891 299.29 16.5866C299.081 16.1842 298.752 15.8764 298.303 15.6634C297.857 15.4455 297.273 15.3366 296.548 15.3366H293.793V28H291.598ZM298.778 21.4375L302.372 28H299.872L296.349 21.4375H298.778ZM308.883 28.2202C307.808 28.2202 306.883 27.9905 306.106 27.5312C305.334 27.0672 304.738 26.4162 304.316 25.5781C303.9 24.7353 303.691 23.7481 303.691 22.6165C303.691 21.4991 303.9 20.5142 304.316 19.6619C304.738 18.8097 305.325 18.1444 306.078 17.6662C306.835 17.188 307.721 16.9489 308.734 16.9489C309.35 16.9489 309.946 17.0507 310.524 17.2543C311.101 17.4579 311.62 17.7775 312.079 18.2131C312.538 18.6487 312.901 19.2145 313.166 19.9105C313.431 20.6018 313.564 21.4422 313.564 22.4318V23.1847H304.892V21.5938H311.483C311.483 21.035 311.369 20.5402 311.142 20.1094C310.914 19.6738 310.595 19.3305 310.183 19.0795C309.776 18.8286 309.297 18.7031 308.748 18.7031C308.152 18.7031 307.631 18.8499 307.186 19.1435C306.745 19.4323 306.404 19.8111 306.163 20.2798C305.926 20.7438 305.808 21.2481 305.808 21.7926V23.0355C305.808 23.7647 305.936 24.3849 306.191 24.8963C306.452 25.4077 306.814 25.7983 307.278 26.0682C307.742 26.3333 308.284 26.4659 308.904 26.4659C309.307 26.4659 309.674 26.4091 310.005 26.2955C310.337 26.1771 310.623 26.0019 310.865 25.7699C311.106 25.5379 311.291 25.2514 311.419 24.9105L313.429 25.2727C313.268 25.8646 312.979 26.383 312.562 26.8281C312.15 27.2685 311.632 27.6117 311.007 27.858C310.386 28.0994 309.679 28.2202 308.883 28.2202ZM324.94 17.0909L320.984 28H318.711L314.748 17.0909H317.028L319.79 25.4858H319.904L322.66 17.0909H324.94ZM326.935 28V17.0909H329.059V28H326.935ZM328.008 15.4077C327.638 15.4077 327.321 15.2846 327.056 15.0384C326.796 14.7874 326.665 14.4891 326.665 14.1435C326.665 13.7931 326.796 13.4948 327.056 13.2486C327.321 12.9976 327.638 12.8722 328.008 12.8722C328.377 12.8722 328.692 12.9976 328.952 13.2486C329.218 13.4948 329.35 13.7931 329.35 14.1435C329.35 14.4891 329.218 14.7874 328.952 15.0384C328.692 15.2846 328.377 15.4077 328.008 15.4077ZM340.091 19.7543L338.166 20.0952C338.085 19.849 337.958 19.6146 337.782 19.392C337.612 19.1695 337.38 18.9872 337.086 18.8452C336.793 18.7031 336.426 18.6321 335.985 18.6321C335.384 18.6321 334.882 18.767 334.48 19.0369C334.077 19.3021 333.876 19.6454 333.876 20.0668C333.876 20.4313 334.011 20.7249 334.281 20.9474C334.551 21.17 334.986 21.3523 335.588 21.4943L337.321 21.892C338.324 22.1241 339.073 22.4815 339.565 22.9645C340.057 23.4474 340.304 24.0748 340.304 24.8466C340.304 25.5 340.114 26.0824 339.735 26.5938C339.361 27.1004 338.838 27.4981 338.166 27.7869C337.498 28.0758 336.724 28.2202 335.843 28.2202C334.622 28.2202 333.625 27.9598 332.853 27.4389C332.082 26.9134 331.608 26.1676 331.433 25.2017L333.485 24.8892C333.613 25.4242 333.876 25.8291 334.274 26.1037C334.672 26.3736 335.19 26.5085 335.829 26.5085C336.525 26.5085 337.082 26.3641 337.498 26.0753C337.915 25.7817 338.123 25.4242 338.123 25.0028C338.123 24.6619 337.995 24.3755 337.74 24.1435C337.489 23.9115 337.103 23.7363 336.582 23.6179L334.735 23.2131C333.717 22.9811 332.965 22.6117 332.477 22.1051C331.994 21.5985 331.752 20.9569 331.752 20.1804C331.752 19.5365 331.932 18.973 332.292 18.4901C332.652 18.0071 333.149 17.6307 333.784 17.3608C334.418 17.0862 335.145 16.9489 335.964 16.9489C337.143 16.9489 338.071 17.2045 338.748 17.7159C339.425 18.2225 339.873 18.902 340.091 19.7543ZM345.813 28.2415C345.122 28.2415 344.497 28.1136 343.938 27.858C343.379 27.5975 342.937 27.2211 342.61 26.7287C342.288 26.2363 342.127 25.6326 342.127 24.9176C342.127 24.3021 342.246 23.7955 342.482 23.3977C342.719 23 343.039 22.6851 343.441 22.4531C343.844 22.2211 344.293 22.0459 344.79 21.9276C345.288 21.8092 345.794 21.7192 346.31 21.6577C346.964 21.5819 347.494 21.5204 347.901 21.473C348.308 21.4209 348.604 21.3381 348.789 21.2244C348.974 21.1108 349.066 20.9261 349.066 20.6705V20.6207C349.066 20.0005 348.891 19.5199 348.54 19.179C348.195 18.8381 347.679 18.6676 346.992 18.6676C346.277 18.6676 345.714 18.8262 345.302 19.1435C344.895 19.456 344.613 19.804 344.457 20.1875L342.461 19.733C342.698 19.0701 343.043 18.535 343.498 18.1278C343.957 17.7159 344.485 17.4176 345.082 17.233C345.678 17.0436 346.306 16.9489 346.964 16.9489C347.399 16.9489 347.861 17.0009 348.349 17.1051C348.841 17.2045 349.3 17.3892 349.727 17.6591C350.157 17.929 350.51 18.3149 350.785 18.8168C351.059 19.3139 351.197 19.9602 351.197 20.7557V28H349.123V26.5085H349.038C348.9 26.7831 348.694 27.053 348.42 27.3182C348.145 27.5833 347.792 27.8035 347.362 27.9787C346.931 28.1539 346.415 28.2415 345.813 28.2415ZM346.275 26.5369C346.862 26.5369 347.364 26.4209 347.781 26.1889C348.202 25.9569 348.522 25.6539 348.739 25.2798C348.962 24.901 349.073 24.4962 349.073 24.0653V22.6591C348.997 22.7348 348.851 22.8059 348.633 22.8722C348.42 22.9337 348.176 22.9882 347.901 23.0355C347.627 23.0781 347.359 23.1184 347.099 23.1562C346.838 23.1894 346.621 23.2178 346.445 23.2415C346.033 23.2936 345.657 23.3812 345.316 23.5043C344.98 23.6274 344.71 23.8049 344.506 24.0369C344.308 24.2642 344.208 24.5672 344.208 24.946C344.208 25.4716 344.402 25.8693 344.79 26.1392C345.179 26.4044 345.674 26.5369 346.275 26.5369ZM354.025 28V17.0909H356.078V18.8239H356.191C356.39 18.2367 356.741 17.7751 357.243 17.4389C357.749 17.098 358.322 16.9276 358.961 16.9276C359.094 16.9276 359.25 16.9323 359.43 16.9418C359.615 16.9512 359.759 16.9631 359.863 16.9773V19.0085C359.778 18.9848 359.627 18.9588 359.409 18.9304C359.191 18.8973 358.973 18.8807 358.755 18.8807C358.253 18.8807 357.806 18.9872 357.413 19.2003C357.025 19.4086 356.717 19.6998 356.49 20.0739C356.262 20.4432 356.149 20.8646 356.149 21.3381V28H354.025ZM366.994 28V17.0909H369.118V28H366.994ZM368.066 15.4077C367.697 15.4077 367.38 15.2846 367.115 15.0384C366.854 14.7874 366.724 14.4891 366.724 14.1435C366.724 13.7931 366.854 13.4948 367.115 13.2486C367.38 12.9976 367.697 12.8722 368.066 12.8722C368.436 12.8722 368.751 12.9976 369.011 13.2486C369.276 13.4948 369.409 13.7931 369.409 14.1435C369.409 14.4891 369.276 14.7874 369.011 15.0384C368.751 15.2846 368.436 15.4077 368.066 15.4077ZM374.098 21.5227V28H371.974V17.0909H374.013V18.8665H374.148C374.399 18.2888 374.792 17.8248 375.327 17.4744C375.866 17.1241 376.546 16.9489 377.365 16.9489C378.108 16.9489 378.759 17.1051 379.318 17.4176C379.877 17.7254 380.31 18.1847 380.618 18.7955C380.926 19.4062 381.08 20.1615 381.08 21.0611V28H378.956V21.3168C378.956 20.526 378.75 19.9081 378.338 19.4631C377.926 19.0133 377.36 18.7884 376.641 18.7884C376.148 18.7884 375.71 18.8949 375.327 19.108C374.948 19.321 374.647 19.6335 374.425 20.0455C374.207 20.4527 374.098 20.9451 374.098 21.5227ZM389.119 17.0909V18.7955H382.955V17.0909H389.119ZM384.645 28V15.8267C384.645 15.1449 384.794 14.5791 385.092 14.1293C385.391 13.6747 385.786 13.3362 386.278 13.1136C386.771 12.8864 387.306 12.7727 387.884 12.7727C388.31 12.7727 388.674 12.8082 388.977 12.8793C389.28 12.9455 389.505 13.0071 389.652 13.0639L389.155 14.7827C389.055 14.7543 388.928 14.7211 388.771 14.6832C388.615 14.6406 388.426 14.6193 388.203 14.6193C387.687 14.6193 387.318 14.7472 387.095 15.0028C386.877 15.2585 386.768 15.6278 386.768 16.1108V28H384.645ZM395.476 28.2202C394.453 28.2202 393.561 27.9858 392.798 27.517C392.036 27.0483 391.444 26.3925 391.023 25.5497C390.601 24.7069 390.391 23.7221 390.391 22.5952C390.391 21.4635 390.601 20.474 391.023 19.6264C391.444 18.7789 392.036 18.1207 392.798 17.652C393.561 17.1832 394.453 16.9489 395.476 16.9489C396.499 16.9489 397.391 17.1832 398.153 17.652C398.916 18.1207 399.508 18.7789 399.929 19.6264C400.35 20.474 400.561 21.4635 400.561 22.5952C400.561 23.7221 400.35 24.7069 399.929 25.5497C399.508 26.3925 398.916 27.0483 398.153 27.517C397.391 27.9858 396.499 28.2202 395.476 28.2202ZM395.483 26.4375C396.146 26.4375 396.695 26.2623 397.131 25.9119C397.566 25.5616 397.888 25.0952 398.097 24.5128C398.31 23.9304 398.416 23.2888 398.416 22.5881C398.416 21.892 398.31 21.2528 398.097 20.6705C397.888 20.0833 397.566 19.6122 397.131 19.2571C396.695 18.902 396.146 18.7244 395.483 18.7244C394.815 18.7244 394.261 18.902 393.821 19.2571C393.385 19.6122 393.061 20.0833 392.848 20.6705C392.64 21.2528 392.536 21.892 392.536 22.5881C392.536 23.2888 392.64 23.9304 392.848 24.5128C393.061 25.0952 393.385 25.5616 393.821 25.9119C394.261 26.2623 394.815 26.4375 395.483 26.4375ZM402.931 28V17.0909H404.984V18.8239H405.098C405.297 18.2367 405.647 17.7751 406.149 17.4389C406.655 17.098 407.228 16.9276 407.868 16.9276C408 16.9276 408.156 16.9323 408.336 16.9418C408.521 16.9512 408.665 16.9631 408.77 16.9773V19.0085C408.684 18.9848 408.533 18.9588 408.315 18.9304C408.097 18.8973 407.879 18.8807 407.662 18.8807C407.16 18.8807 406.712 18.9872 406.319 19.2003C405.931 19.4086 405.623 19.6998 405.396 20.0739C405.169 20.4432 405.055 20.8646 405.055 21.3381V28H402.931ZM410.607 28V17.0909H412.646V18.8665H412.781C413.008 18.2652 413.379 17.7964 413.896 17.4602C414.412 17.1193 415.03 16.9489 415.749 16.9489C416.478 16.9489 417.089 17.1193 417.582 17.4602C418.079 17.8011 418.446 18.2699 418.683 18.8665H418.796C419.057 18.2841 419.471 17.8201 420.039 17.4744C420.607 17.1241 421.284 16.9489 422.07 16.9489C423.06 16.9489 423.867 17.259 424.492 17.8793C425.122 18.4995 425.437 19.4347 425.437 20.6847V28H423.313V20.8835C423.313 20.1449 423.112 19.6098 422.71 19.2784C422.307 18.947 421.826 18.7812 421.268 18.7812C420.576 18.7812 420.039 18.9943 419.656 19.4205C419.272 19.8419 419.08 20.384 419.08 21.0469V28H416.964V20.7486C416.964 20.1567 416.779 19.6809 416.41 19.321C416.04 18.9612 415.56 18.7812 414.968 18.7812C414.566 18.7812 414.194 18.8878 413.853 19.1009C413.517 19.3092 413.245 19.6004 413.036 19.9744C412.833 20.3485 412.731 20.7817 412.731 21.2741V28H410.607ZM431.458 28.2415C430.766 28.2415 430.141 28.1136 429.583 27.858C429.024 27.5975 428.581 27.2211 428.255 26.7287C427.933 26.2363 427.772 25.6326 427.772 24.9176C427.772 24.3021 427.89 23.7955 428.127 23.3977C428.364 23 428.683 22.6851 429.086 22.4531C429.488 22.2211 429.938 22.0459 430.435 21.9276C430.932 21.8092 431.439 21.7192 431.955 21.6577C432.608 21.5819 433.139 21.5204 433.546 21.473C433.953 21.4209 434.249 21.3381 434.434 21.2244C434.618 21.1108 434.711 20.9261 434.711 20.6705V20.6207C434.711 20.0005 434.535 19.5199 434.185 19.179C433.839 18.8381 433.323 18.6676 432.637 18.6676C431.922 18.6676 431.358 18.8262 430.946 19.1435C430.539 19.456 430.257 19.804 430.101 20.1875L428.105 19.733C428.342 19.0701 428.688 18.535 429.142 18.1278C429.602 17.7159 430.13 17.4176 430.726 17.233C431.323 17.0436 431.95 16.9489 432.608 16.9489C433.044 16.9489 433.506 17.0009 433.993 17.1051C434.486 17.2045 434.945 17.3892 435.371 17.6591C435.802 17.929 436.155 18.3149 436.429 18.8168C436.704 19.3139 436.841 19.9602 436.841 20.7557V28H434.767V26.5085H434.682C434.545 26.7831 434.339 27.053 434.064 27.3182C433.79 27.5833 433.437 27.8035 433.006 27.9787C432.575 28.1539 432.059 28.2415 431.458 28.2415ZM431.919 26.5369C432.507 26.5369 433.008 26.4209 433.425 26.1889C433.846 25.9569 434.166 25.6539 434.384 25.2798C434.606 24.901 434.718 24.4962 434.718 24.0653V22.6591C434.642 22.7348 434.495 22.8059 434.277 22.8722C434.064 22.9337 433.82 22.9882 433.546 23.0355C433.271 23.0781 433.004 23.1184 432.743 23.1562C432.483 23.1894 432.265 23.2178 432.09 23.2415C431.678 23.2936 431.301 23.3812 430.961 23.5043C430.624 23.6274 430.355 23.8049 430.151 24.0369C429.952 24.2642 429.853 24.5672 429.853 24.946C429.853 25.4716 430.047 25.8693 430.435 26.1392C430.823 26.4044 431.318 26.5369 431.919 26.5369ZM444.265 28.2202C443.209 28.2202 442.3 27.9811 441.538 27.5028C440.78 27.0199 440.198 26.3546 439.79 25.5071C439.383 24.6596 439.18 23.6889 439.18 22.5952C439.18 21.4872 439.388 20.5095 439.805 19.6619C440.221 18.8097 440.808 18.1444 441.566 17.6662C442.324 17.188 443.216 16.9489 444.244 16.9489C445.072 16.9489 445.811 17.1027 446.46 17.4105C447.108 17.7135 447.631 18.1397 448.029 18.6889C448.432 19.2382 448.671 19.8797 448.746 20.6136H446.68C446.566 20.1023 446.306 19.6619 445.898 19.2926C445.496 18.9233 444.956 18.7386 444.279 18.7386C443.687 18.7386 443.169 18.8949 442.724 19.2074C442.283 19.5152 441.94 19.9555 441.694 20.5284C441.448 21.0966 441.325 21.7689 441.325 22.5455C441.325 23.3409 441.445 24.0275 441.687 24.6051C441.928 25.1828 442.269 25.6302 442.71 25.9474C443.155 26.2647 443.678 26.4233 444.279 26.4233C444.682 26.4233 445.046 26.3499 445.373 26.2031C445.704 26.0516 445.981 25.8362 446.204 25.5568C446.431 25.2775 446.59 24.9413 446.68 24.5483H448.746C448.671 25.2538 448.441 25.8835 448.058 26.4375C447.674 26.9915 447.16 27.4271 446.516 27.7443C445.877 28.0616 445.127 28.2202 444.265 28.2202ZM443.498 27.9432H444.89L444.776 28.5256C445.188 28.5919 445.548 28.7576 445.856 29.0227C446.164 29.2879 446.317 29.688 446.317 30.223C446.322 30.8622 446.045 31.3807 445.487 31.7784C444.933 32.1761 444.13 32.375 443.079 32.375L443.036 31.1889C443.529 31.1889 443.926 31.1179 444.229 30.9759C444.537 30.8338 444.693 30.6042 444.698 30.2869C444.703 29.9697 444.585 29.7472 444.343 29.6193C444.106 29.4915 443.728 29.4015 443.207 29.3494L443.498 27.9432ZM455.613 28.2202C454.59 28.2202 453.697 27.9858 452.935 27.517C452.173 27.0483 451.581 26.3925 451.159 25.5497C450.738 24.7069 450.527 23.7221 450.527 22.5952C450.527 21.4635 450.738 20.474 451.159 19.6264C451.581 18.7789 452.173 18.1207 452.935 17.652C453.697 17.1832 454.59 16.9489 455.613 16.9489C456.635 16.9489 457.528 17.1832 458.29 17.652C459.052 18.1207 459.644 18.7789 460.066 19.6264C460.487 20.474 460.698 21.4635 460.698 22.5952C460.698 23.7221 460.487 24.7069 460.066 25.5497C459.644 26.3925 459.052 27.0483 458.29 27.517C457.528 27.9858 456.635 28.2202 455.613 28.2202ZM455.62 26.4375C456.283 26.4375 456.832 26.2623 457.267 25.9119C457.703 25.5616 458.025 25.0952 458.233 24.5128C458.446 23.9304 458.553 23.2888 458.553 22.5881C458.553 21.892 458.446 21.2528 458.233 20.6705C458.025 20.0833 457.703 19.6122 457.267 19.2571C456.832 18.902 456.283 18.7244 455.62 18.7244C454.952 18.7244 454.398 18.902 453.958 19.2571C453.522 19.6122 453.198 20.0833 452.985 20.6705C452.776 21.2528 452.672 21.892 452.672 22.5881C452.672 23.2888 452.776 23.9304 452.985 24.5128C453.198 25.0952 453.522 25.5616 453.958 25.9119C454.398 26.2623 454.952 26.4375 455.62 26.4375ZM453.475 15.7699L452.047 15.7273C452.047 14.9413 452.258 14.3139 452.679 13.8452C453.105 13.3764 453.631 13.142 454.256 13.142C454.545 13.142 454.798 13.1918 455.016 13.2912C455.234 13.3859 455.437 13.4972 455.627 13.625C455.821 13.7481 456.013 13.8594 456.202 13.9588C456.396 14.0535 456.612 14.1009 456.848 14.1009C457.123 14.1009 457.346 13.9967 457.516 13.7884C457.691 13.58 457.779 13.322 457.779 13.0142L459.178 13.1065C459.178 13.8973 458.965 14.5199 458.539 14.9744C458.113 15.4242 457.589 15.6515 456.969 15.6562C456.633 15.6562 456.354 15.6089 456.131 15.5142C455.913 15.4148 455.719 15.3035 455.549 15.1804C455.378 15.0526 455.203 14.9389 455.023 14.8395C454.843 14.7401 454.628 14.6903 454.377 14.6903C454.112 14.6903 453.894 14.7945 453.723 15.0028C453.558 15.2064 453.475 15.4621 453.475 15.7699ZM467.77 28.2202C466.695 28.2202 465.769 27.9905 464.993 27.5312C464.221 27.0672 463.625 26.4162 463.203 25.5781C462.786 24.7353 462.578 23.7481 462.578 22.6165C462.578 21.4991 462.786 20.5142 463.203 19.6619C463.625 18.8097 464.212 18.1444 464.964 17.6662C465.722 17.188 466.607 16.9489 467.621 16.9489C468.236 16.9489 468.833 17.0507 469.411 17.2543C469.988 17.4579 470.507 17.7775 470.966 18.2131C471.425 18.6487 471.787 19.2145 472.053 19.9105C472.318 20.6018 472.45 21.4422 472.45 22.4318V23.1847H463.778V21.5938H470.369C470.369 21.035 470.256 20.5402 470.028 20.1094C469.801 19.6738 469.482 19.3305 469.07 19.0795C468.662 18.8286 468.184 18.7031 467.635 18.7031C467.038 18.7031 466.518 18.8499 466.072 19.1435C465.632 19.4323 465.291 19.8111 465.05 20.2798C464.813 20.7438 464.695 21.2481 464.695 21.7926V23.0355C464.695 23.7647 464.822 24.3849 465.078 24.8963C465.339 25.4077 465.701 25.7983 466.165 26.0682C466.629 26.3333 467.171 26.4659 467.791 26.4659C468.194 26.4659 468.561 26.4091 468.892 26.2955C469.223 26.1771 469.51 26.0019 469.751 25.7699C469.993 25.5379 470.178 25.2514 470.305 24.9105L472.315 25.2727C472.154 25.8646 471.866 26.383 471.449 26.8281C471.037 27.2685 470.518 27.6117 469.893 27.858C469.273 28.0994 468.565 28.2202 467.77 28.2202ZM482.981 19.7543L481.056 20.0952C480.976 19.849 480.848 19.6146 480.673 19.392C480.502 19.1695 480.27 18.9872 479.977 18.8452C479.683 18.7031 479.316 18.6321 478.876 18.6321C478.275 18.6321 477.773 18.767 477.37 19.0369C476.968 19.3021 476.767 19.6454 476.767 20.0668C476.767 20.4313 476.902 20.7249 477.172 20.9474C477.441 21.17 477.877 21.3523 478.478 21.4943L480.211 21.892C481.215 22.1241 481.963 22.4815 482.456 22.9645C482.948 23.4474 483.194 24.0748 483.194 24.8466C483.194 25.5 483.005 26.0824 482.626 26.5938C482.252 27.1004 481.729 27.4981 481.056 27.7869C480.389 28.0758 479.615 28.2202 478.734 28.2202C477.512 28.2202 476.516 27.9598 475.744 27.4389C474.972 26.9134 474.499 26.1676 474.324 25.2017L476.376 24.8892C476.504 25.4242 476.767 25.8291 477.164 26.1037C477.562 26.3736 478.081 26.5085 478.72 26.5085C479.416 26.5085 479.972 26.3641 480.389 26.0753C480.806 25.7817 481.014 25.4242 481.014 25.0028C481.014 24.6619 480.886 24.3755 480.63 24.1435C480.379 23.9115 479.993 23.7363 479.473 23.6179L477.626 23.2131C476.608 22.9811 475.855 22.6117 475.368 22.1051C474.885 21.5985 474.643 20.9569 474.643 20.1804C474.643 19.5365 474.823 18.973 475.183 18.4901C475.543 18.0071 476.04 17.6307 476.674 17.3608C477.309 17.0862 478.036 16.9489 478.855 16.9489C480.034 16.9489 480.962 17.2045 481.639 17.7159C482.316 18.2225 482.763 18.902 482.981 19.7543Z" fill="#2D96CD"/>
<path d="M547.679 18.1847H545.463C545.378 17.7112 545.219 17.2945 544.987 16.9347C544.755 16.5748 544.471 16.2694 544.135 16.0185C543.799 15.7675 543.422 15.5781 543.006 15.4503C542.594 15.3224 542.156 15.2585 541.692 15.2585C540.854 15.2585 540.103 15.4692 539.44 15.8906C538.782 16.312 538.261 16.9299 537.878 17.7443C537.499 18.5587 537.31 19.553 537.31 20.7273C537.31 21.911 537.499 22.91 537.878 23.7244C538.261 24.5388 538.785 25.1544 539.447 25.571C540.11 25.9877 540.856 26.196 541.685 26.196C542.144 26.196 542.58 26.1345 542.991 26.0114C543.408 25.8835 543.785 25.6965 544.121 25.4503C544.457 25.2041 544.741 24.9034 544.973 24.5483C545.21 24.1884 545.373 23.7765 545.463 23.3125L547.679 23.3196C547.561 24.0346 547.331 24.6927 546.99 25.294C546.654 25.8906 546.221 26.4067 545.69 26.8423C545.165 27.2732 544.563 27.607 543.886 27.8438C543.209 28.0805 542.471 28.1989 541.67 28.1989C540.411 28.1989 539.289 27.9006 538.304 27.304C537.319 26.7027 536.543 25.8433 535.974 24.7259C535.411 23.6084 535.129 22.2756 535.129 20.7273C535.129 19.1742 535.413 17.8414 535.982 16.7287C536.55 15.6113 537.326 14.7543 538.311 14.1577C539.296 13.5563 540.416 13.2557 541.67 13.2557C542.442 13.2557 543.162 13.367 543.83 13.5895C544.502 13.8073 545.106 14.1293 545.641 14.5554C546.176 14.9768 546.618 15.4929 546.969 16.1037C547.319 16.7098 547.556 17.4034 547.679 18.1847ZM554.73 28.2202C553.707 28.2202 552.815 27.9858 552.052 27.517C551.29 27.0483 550.698 26.3925 550.277 25.5497C549.855 24.7069 549.645 23.7221 549.645 22.5952C549.645 21.4635 549.855 20.474 550.277 19.6264C550.698 18.7789 551.29 18.1207 552.052 17.652C552.815 17.1832 553.707 16.9489 554.73 16.9489C555.752 16.9489 556.645 17.1832 557.407 17.652C558.17 18.1207 558.761 18.7789 559.183 19.6264C559.604 20.474 559.815 21.4635 559.815 22.5952C559.815 23.7221 559.604 24.7069 559.183 25.5497C558.761 26.3925 558.17 27.0483 557.407 27.517C556.645 27.9858 555.752 28.2202 554.73 28.2202ZM554.737 26.4375C555.4 26.4375 555.949 26.2623 556.385 25.9119C556.82 25.5616 557.142 25.0952 557.35 24.5128C557.564 23.9304 557.67 23.2888 557.67 22.5881C557.67 21.892 557.564 21.2528 557.35 20.6705C557.142 20.0833 556.82 19.6122 556.385 19.2571C555.949 18.902 555.4 18.7244 554.737 18.7244C554.069 18.7244 553.515 18.902 553.075 19.2571C552.639 19.6122 552.315 20.0833 552.102 20.6705C551.894 21.2528 551.789 21.892 551.789 22.5881C551.789 23.2888 551.894 23.9304 552.102 24.5128C552.315 25.0952 552.639 25.5616 553.075 25.9119C553.515 26.2623 554.069 26.4375 554.737 26.4375ZM564.309 21.5227V28H562.185V17.0909H564.224V18.8665H564.359C564.61 18.2888 565.003 17.8248 565.538 17.4744C566.077 17.1241 566.757 16.9489 567.576 16.9489C568.319 16.9489 568.97 17.1051 569.529 17.4176C570.088 17.7254 570.521 18.1847 570.829 18.7955C571.137 19.4062 571.29 20.1615 571.29 21.0611V28H569.167V21.3168C569.167 20.526 568.961 19.9081 568.549 19.4631C568.137 19.0133 567.571 18.7884 566.852 18.7884C566.359 18.7884 565.921 18.8949 565.538 19.108C565.159 19.321 564.858 19.6335 564.636 20.0455C564.418 20.4527 564.309 20.9451 564.309 21.5227ZM579.33 17.0909V18.7955H573.165V17.0909H579.33ZM574.856 28V15.8267C574.856 15.1449 575.005 14.5791 575.303 14.1293C575.602 13.6747 575.997 13.3362 576.489 13.1136C576.982 12.8864 577.517 12.7727 578.094 12.7727C578.521 12.7727 578.885 12.8082 579.188 12.8793C579.491 12.9455 579.716 13.0071 579.863 13.0639L579.366 14.7827C579.266 14.7543 579.138 14.7211 578.982 14.6832C578.826 14.6406 578.637 14.6193 578.414 14.6193C577.898 14.6193 577.529 14.7472 577.306 15.0028C577.088 15.2585 576.979 15.6278 576.979 16.1108V28H574.856ZM581.521 28V17.0909H583.645V28H581.521ZM582.594 15.4077C582.224 15.4077 581.907 15.2846 581.642 15.0384C581.382 14.7874 581.251 14.4891 581.251 14.1435C581.251 13.7931 581.382 13.4948 581.642 13.2486C581.907 12.9976 582.224 12.8722 582.594 12.8722C582.963 12.8722 583.278 12.9976 583.538 13.2486C583.804 13.4948 583.936 13.7931 583.936 14.1435C583.936 14.4891 583.804 14.7874 583.538 15.0384C583.278 15.2846 582.963 15.4077 582.594 15.4077ZM586.502 28V17.0909H588.554V18.8239H588.668C588.867 18.2367 589.217 17.7751 589.719 17.4389C590.226 17.098 590.799 16.9276 591.438 16.9276C591.57 16.9276 591.727 16.9323 591.907 16.9418C592.091 16.9512 592.236 16.9631 592.34 16.9773V19.0085C592.255 18.9848 592.103 18.9588 591.885 18.9304C591.667 18.8973 591.45 18.8807 591.232 18.8807C590.73 18.8807 590.283 18.9872 589.89 19.2003C589.501 19.4086 589.194 19.6998 588.966 20.0739C588.739 20.4432 588.625 20.8646 588.625 21.3381V28H586.502ZM594.178 28V17.0909H596.216V18.8665H596.351C596.578 18.2652 596.95 17.7964 597.466 17.4602C597.982 17.1193 598.6 16.9489 599.32 16.9489C600.049 16.9489 600.66 17.1193 601.152 17.4602C601.649 17.8011 602.016 18.2699 602.253 18.8665H602.366C602.627 18.2841 603.041 17.8201 603.609 17.4744C604.178 17.1241 604.855 16.9489 605.641 16.9489C606.63 16.9489 607.438 17.259 608.062 17.8793C608.692 18.4995 609.007 19.4347 609.007 20.6847V28H606.884V20.8835C606.884 20.1449 606.682 19.6098 606.28 19.2784C605.877 18.947 605.397 18.7812 604.838 18.7812C604.147 18.7812 603.609 18.9943 603.226 19.4205C602.842 19.8419 602.651 20.384 602.651 21.0469V28H600.534V20.7486C600.534 20.1567 600.349 19.6809 599.98 19.321C599.611 18.9612 599.13 18.7812 598.538 18.7812C598.136 18.7812 597.764 18.8878 597.423 19.1009C597.087 19.3092 596.815 19.6004 596.607 19.9744C596.403 20.3485 596.301 20.7817 596.301 21.2741V28H594.178ZM615.028 28.2415C614.337 28.2415 613.712 28.1136 613.153 27.858C612.594 27.5975 612.152 27.2211 611.825 26.7287C611.503 26.2363 611.342 25.6326 611.342 24.9176C611.342 24.3021 611.46 23.7955 611.697 23.3977C611.934 23 612.253 22.6851 612.656 22.4531C613.058 22.2211 613.508 22.0459 614.005 21.9276C614.502 21.8092 615.009 21.7192 615.525 21.6577C616.179 21.5819 616.709 21.5204 617.116 21.473C617.523 21.4209 617.819 21.3381 618.004 21.2244C618.189 21.1108 618.281 20.9261 618.281 20.6705V20.6207C618.281 20.0005 618.106 19.5199 617.755 19.179C617.41 18.8381 616.894 18.6676 616.207 18.6676C615.492 18.6676 614.929 18.8262 614.517 19.1435C614.109 19.456 613.828 19.804 613.672 20.1875L611.676 19.733C611.913 19.0701 612.258 18.535 612.713 18.1278C613.172 17.7159 613.7 17.4176 614.297 17.233C614.893 17.0436 615.52 16.9489 616.179 16.9489C616.614 16.9489 617.076 17.0009 617.564 17.1051C618.056 17.2045 618.515 17.3892 618.941 17.6591C619.372 17.929 619.725 18.3149 620 18.8168C620.274 19.3139 620.412 19.9602 620.412 20.7557V28H618.338V26.5085H618.252C618.115 26.7831 617.909 27.053 617.635 27.3182C617.36 27.5833 617.007 27.8035 616.576 27.9787C616.145 28.1539 615.629 28.2415 615.028 28.2415ZM615.49 26.5369C616.077 26.5369 616.579 26.4209 616.995 26.1889C617.417 25.9569 617.736 25.6539 617.954 25.2798C618.177 24.901 618.288 24.4962 618.288 24.0653V22.6591C618.212 22.7348 618.065 22.8059 617.848 22.8722C617.635 22.9337 617.391 22.9882 617.116 23.0355C616.842 23.0781 616.574 23.1184 616.314 23.1562C616.053 23.1894 615.835 23.2178 615.66 23.2415C615.248 23.2936 614.872 23.3812 614.531 23.5043C614.195 23.6274 613.925 23.8049 613.721 24.0369C613.522 24.2642 613.423 24.5672 613.423 24.946C613.423 25.4716 613.617 25.8693 614.005 26.1392C614.394 26.4044 614.888 26.5369 615.49 26.5369ZM627.835 28.2202C626.779 28.2202 625.87 27.9811 625.108 27.5028C624.35 27.0199 623.768 26.3546 623.361 25.5071C622.954 24.6596 622.75 23.6889 622.75 22.5952C622.75 21.4872 622.958 20.5095 623.375 19.6619C623.792 18.8097 624.379 18.1444 625.136 17.6662C625.894 17.188 626.786 16.9489 627.814 16.9489C628.643 16.9489 629.381 17.1027 630.03 17.4105C630.679 17.7135 631.202 18.1397 631.599 18.6889C632.002 19.2382 632.241 19.8797 632.317 20.6136H630.25C630.136 20.1023 629.876 19.6619 629.469 19.2926C629.066 18.9233 628.527 18.7386 627.849 18.7386C627.258 18.7386 626.739 18.8949 626.294 19.2074C625.854 19.5152 625.51 19.9555 625.264 20.5284C625.018 21.0966 624.895 21.7689 624.895 22.5455C624.895 23.3409 625.016 24.0275 625.257 24.6051C625.499 25.1828 625.839 25.6302 626.28 25.9474C626.725 26.2647 627.248 26.4233 627.849 26.4233C628.252 26.4233 628.616 26.3499 628.943 26.2031C629.275 26.0516 629.552 25.8362 629.774 25.5568C630.001 25.2775 630.16 24.9413 630.25 24.5483H632.317C632.241 25.2538 632.011 25.8835 631.628 26.4375C631.244 26.9915 630.731 27.4271 630.087 27.7443C629.447 28.0616 628.697 28.2202 627.835 28.2202ZM627.068 27.9432H628.46L628.347 28.5256C628.759 28.5919 629.118 28.7576 629.426 29.0227C629.734 29.2879 629.888 29.688 629.888 30.223C629.893 30.8622 629.616 31.3807 629.057 31.7784C628.503 32.1761 627.7 32.375 626.649 32.375L626.607 31.1889C627.099 31.1889 627.497 31.1179 627.8 30.9759C628.107 30.8338 628.264 30.6042 628.268 30.2869C628.273 29.9697 628.155 29.7472 627.913 29.6193C627.677 29.4915 627.298 29.4015 626.777 29.3494L627.068 27.9432ZM637.762 28.2415C637.071 28.2415 636.446 28.1136 635.887 27.858C635.329 27.5975 634.886 27.2211 634.559 26.7287C634.237 26.2363 634.076 25.6326 634.076 24.9176C634.076 24.3021 634.195 23.7955 634.431 23.3977C634.668 23 634.988 22.6851 635.39 22.4531C635.793 22.2211 636.243 22.0459 636.74 21.9276C637.237 21.8092 637.743 21.7192 638.26 21.6577C638.913 21.5819 639.443 21.5204 639.85 21.473C640.258 21.4209 640.554 21.3381 640.738 21.2244C640.923 21.1108 641.015 20.9261 641.015 20.6705V20.6207C641.015 20.0005 640.84 19.5199 640.49 19.179C640.144 18.8381 639.628 18.6676 638.941 18.6676C638.226 18.6676 637.663 18.8262 637.251 19.1435C636.844 19.456 636.562 19.804 636.406 20.1875L634.41 19.733C634.647 19.0701 634.993 18.535 635.447 18.1278C635.906 17.7159 636.434 17.4176 637.031 17.233C637.627 17.0436 638.255 16.9489 638.913 16.9489C639.349 16.9489 639.81 17.0009 640.298 17.1051C640.79 17.2045 641.25 17.3892 641.676 17.6591C642.107 17.929 642.459 18.3149 642.734 18.8168C643.009 19.3139 643.146 19.9602 643.146 20.7557V28H641.072V26.5085H640.987C640.85 26.7831 640.644 27.053 640.369 27.3182C640.094 27.5833 639.742 27.8035 639.311 27.9787C638.88 28.1539 638.364 28.2415 637.762 28.2415ZM638.224 26.5369C638.811 26.5369 639.313 26.4209 639.73 26.1889C640.151 25.9569 640.471 25.6539 640.689 25.2798C640.911 24.901 641.022 24.4962 641.022 24.0653V22.6591C640.947 22.7348 640.8 22.8059 640.582 22.8722C640.369 22.9337 640.125 22.9882 639.85 23.0355C639.576 23.0781 639.308 23.1184 639.048 23.1562C638.788 23.1894 638.57 23.2178 638.395 23.2415C637.983 23.2936 637.606 23.3812 637.265 23.5043C636.929 23.6274 636.659 23.8049 636.456 24.0369C636.257 24.2642 636.157 24.5672 636.157 24.946C636.157 25.4716 636.351 25.8693 636.74 26.1392C637.128 26.4044 637.623 26.5369 638.224 26.5369ZM636.889 15.7699L635.461 15.7273C635.461 14.9413 635.672 14.3139 636.093 13.8452C636.52 13.3764 637.045 13.142 637.67 13.142C637.959 13.142 638.212 13.1918 638.43 13.2912C638.648 13.3859 638.851 13.4972 639.041 13.625C639.235 13.7481 639.427 13.8594 639.616 13.9588C639.81 14.0535 640.026 14.1009 640.262 14.1009C640.537 14.1009 640.76 13.9967 640.93 13.7884C641.105 13.58 641.193 13.322 641.193 13.0142L642.592 13.1065C642.592 13.8973 642.379 14.5199 641.953 14.9744C641.527 15.4242 641.003 15.6515 640.383 15.6562C640.047 15.6562 639.768 15.6089 639.545 15.5142C639.327 15.4148 639.133 15.3035 638.963 15.1804C638.792 15.0526 638.617 14.9389 638.437 14.8395C638.257 14.7401 638.042 14.6903 637.791 14.6903C637.526 14.6903 637.308 14.7945 637.137 15.0028C636.972 15.2064 636.889 15.4621 636.889 15.7699ZM650.57 28.2202C649.547 28.2202 648.654 27.9858 647.892 27.517C647.13 27.0483 646.538 26.3925 646.116 25.5497C645.695 24.7069 645.484 23.7221 645.484 22.5952C645.484 21.4635 645.695 20.474 646.116 19.6264C646.538 18.7789 647.13 18.1207 647.892 17.652C648.654 17.1832 649.547 16.9489 650.57 16.9489C651.592 16.9489 652.485 17.1832 653.247 17.652C654.009 18.1207 654.601 18.7789 655.023 19.6264C655.444 20.474 655.655 21.4635 655.655 22.5952C655.655 23.7221 655.444 24.7069 655.023 25.5497C654.601 26.3925 654.009 27.0483 653.247 27.517C652.485 27.9858 651.592 28.2202 650.57 28.2202ZM650.577 26.4375C651.24 26.4375 651.789 26.2623 652.224 25.9119C652.66 25.5616 652.982 25.0952 653.19 24.5128C653.403 23.9304 653.51 23.2888 653.51 22.5881C653.51 21.892 653.403 21.2528 653.19 20.6705C652.982 20.0833 652.66 19.6122 652.224 19.2571C651.789 18.902 651.24 18.7244 650.577 18.7244C649.909 18.7244 649.355 18.902 648.915 19.2571C648.479 19.6122 648.155 20.0833 647.942 20.6705C647.733 21.2528 647.629 21.892 647.629 22.5881C647.629 23.2888 647.733 23.9304 647.942 24.5128C648.155 25.0952 648.479 25.5616 648.915 25.9119C649.355 26.2623 649.909 26.4375 650.577 26.4375ZM667.402 28.2131C666.521 28.2131 665.735 27.9882 665.044 27.5384C664.357 27.0838 663.818 26.4375 663.425 25.5994C663.036 24.7566 662.842 23.7457 662.842 22.5668C662.842 21.3878 663.039 20.3793 663.432 19.5412C663.83 18.7031 664.374 18.0616 665.065 17.6165C665.757 17.1714 666.54 16.9489 667.416 16.9489C668.093 16.9489 668.638 17.0625 669.05 17.2898C669.466 17.5123 669.788 17.7727 670.016 18.071C670.248 18.3693 670.428 18.6321 670.555 18.8594H670.683V13.4545H672.807V28H670.733V26.3026H670.555C670.428 26.5346 670.243 26.7997 670.001 27.098C669.765 27.3963 669.438 27.6567 669.021 27.8793C668.605 28.1018 668.065 28.2131 667.402 28.2131ZM667.871 26.402C668.482 26.402 668.998 26.241 669.419 25.919C669.845 25.5923 670.167 25.1402 670.385 24.5625C670.607 23.9848 670.719 23.3125 670.719 22.5455C670.719 21.7879 670.61 21.125 670.392 20.5568C670.174 19.9886 669.855 19.5459 669.433 19.2287C669.012 18.9115 668.491 18.7528 667.871 18.7528C667.232 18.7528 666.699 18.9186 666.273 19.25C665.847 19.5814 665.525 20.0336 665.307 20.6065C665.094 21.1795 664.987 21.8258 664.987 22.5455C664.987 23.2746 665.096 23.9304 665.314 24.5128C665.532 25.0952 665.854 25.5568 666.28 25.8977C666.711 26.2339 667.241 26.402 667.871 26.402ZM679.012 28.2415C678.321 28.2415 677.696 28.1136 677.137 27.858C676.579 27.5975 676.136 27.2211 675.809 26.7287C675.487 26.2363 675.326 25.6326 675.326 24.9176C675.326 24.3021 675.445 23.7955 675.681 23.3977C675.918 23 676.238 22.6851 676.64 22.4531C677.043 22.2211 677.493 22.0459 677.99 21.9276C678.487 21.8092 678.993 21.7192 679.51 21.6577C680.163 21.5819 680.693 21.5204 681.1 21.473C681.508 21.4209 681.804 21.3381 681.988 21.2244C682.173 21.1108 682.265 20.9261 682.265 20.6705V20.6207C682.265 20.0005 682.09 19.5199 681.74 19.179C681.394 18.8381 680.878 18.6676 680.191 18.6676C679.476 18.6676 678.913 18.8262 678.501 19.1435C678.094 19.456 677.812 19.804 677.656 20.1875L675.66 19.733C675.897 19.0701 676.243 18.535 676.697 18.1278C677.156 17.7159 677.684 17.4176 678.281 17.233C678.877 17.0436 679.505 16.9489 680.163 16.9489C680.599 16.9489 681.06 17.0009 681.548 17.1051C682.04 17.2045 682.5 17.3892 682.926 17.6591C683.357 17.929 683.709 18.3149 683.984 18.8168C684.259 19.3139 684.396 19.9602 684.396 20.7557V28H682.322V26.5085H682.237C682.1 26.7831 681.894 27.053 681.619 27.3182C681.344 27.5833 680.992 27.8035 680.561 27.9787C680.13 28.1539 679.614 28.2415 679.012 28.2415ZM679.474 26.5369C680.061 26.5369 680.563 26.4209 680.98 26.1889C681.401 25.9569 681.721 25.6539 681.939 25.2798C682.161 24.901 682.272 24.4962 682.272 24.0653V22.6591C682.197 22.7348 682.05 22.8059 681.832 22.8722C681.619 22.9337 681.375 22.9882 681.1 23.0355C680.826 23.0781 680.558 23.1184 680.298 23.1562C680.038 23.1894 679.82 23.2178 679.645 23.2415C679.233 23.2936 678.856 23.3812 678.515 23.5043C678.179 23.6274 677.909 23.8049 677.706 24.0369C677.507 24.2642 677.407 24.5672 677.407 24.946C677.407 25.4716 677.601 25.8693 677.99 26.1392C678.378 26.4044 678.873 26.5369 679.474 26.5369ZM697.113 28.2202C696.057 28.2202 695.148 27.9811 694.385 27.5028C693.628 27.0199 693.045 26.3546 692.638 25.5071C692.231 24.6596 692.027 23.6889 692.027 22.5952C692.027 21.4872 692.236 20.5095 692.652 19.6619C693.069 18.8097 693.656 18.1444 694.414 17.6662C695.171 17.188 696.064 16.9489 697.091 16.9489C697.92 16.9489 698.658 17.1027 699.307 17.4105C699.956 17.7135 700.479 18.1397 700.877 18.6889C701.279 19.2382 701.518 19.8797 701.594 20.6136H699.527C699.414 20.1023 699.153 19.6619 698.746 19.2926C698.344 18.9233 697.804 18.7386 697.127 18.7386C696.535 18.7386 696.016 18.8949 695.571 19.2074C695.131 19.5152 694.788 19.9555 694.542 20.5284C694.295 21.0966 694.172 21.7689 694.172 22.5455C694.172 23.3409 694.293 24.0275 694.534 24.6051C694.776 25.1828 695.117 25.6302 695.557 25.9474C696.002 26.2647 696.525 26.4233 697.127 26.4233C697.529 26.4233 697.894 26.3499 698.221 26.2031C698.552 26.0516 698.829 25.8362 699.051 25.5568C699.279 25.2775 699.437 24.9413 699.527 24.5483H701.594C701.518 25.2538 701.289 25.8835 700.905 26.4375C700.522 26.9915 700.008 27.4271 699.364 27.7443C698.725 28.0616 697.974 28.2202 697.113 28.2202ZM708.46 28.2202C707.438 28.2202 706.545 27.9858 705.783 27.517C705.02 27.0483 704.429 26.3925 704.007 25.5497C703.586 24.7069 703.375 23.7221 703.375 22.5952C703.375 21.4635 703.586 20.474 704.007 19.6264C704.429 18.7789 705.02 18.1207 705.783 17.652C706.545 17.1832 707.438 16.9489 708.46 16.9489C709.483 16.9489 710.375 17.1832 711.138 17.652C711.9 18.1207 712.492 18.7789 712.913 19.6264C713.335 20.474 713.545 21.4635 713.545 22.5952C713.545 23.7221 713.335 24.7069 712.913 25.5497C712.492 26.3925 711.9 27.0483 711.138 27.517C710.375 27.9858 709.483 28.2202 708.46 28.2202ZM708.467 26.4375C709.13 26.4375 709.679 26.2623 710.115 25.9119C710.551 25.5616 710.873 25.0952 711.081 24.5128C711.294 23.9304 711.401 23.2888 711.401 22.5881C711.401 21.892 711.294 21.2528 711.081 20.6705C710.873 20.0833 710.551 19.6122 710.115 19.2571C709.679 18.902 709.13 18.7244 708.467 18.7244C707.8 18.7244 707.246 18.902 706.805 19.2571C706.37 19.6122 706.045 20.0833 705.832 20.6705C705.624 21.2528 705.52 21.892 705.52 22.5881C705.52 23.2888 705.624 23.9304 705.832 24.5128C706.045 25.0952 706.37 25.5616 706.805 25.9119C707.246 26.2623 707.8 26.4375 708.467 26.4375ZM715.916 28V17.0909H717.954V18.8665H718.089C718.316 18.2652 718.688 17.7964 719.204 17.4602C719.72 17.1193 720.338 16.9489 721.058 16.9489C721.787 16.9489 722.398 17.1193 722.89 17.4602C723.387 17.8011 723.754 18.2699 723.991 18.8665H724.105C724.365 18.2841 724.779 17.8201 725.348 17.4744C725.916 17.1241 726.593 16.9489 727.379 16.9489C728.368 16.9489 729.176 17.259 729.801 17.8793C730.431 18.4995 730.745 19.4347 730.745 20.6847V28H728.622V20.8835C728.622 20.1449 728.421 19.6098 728.018 19.2784C727.616 18.947 727.135 18.7812 726.576 18.7812C725.885 18.7812 725.348 18.9943 724.964 19.4205C724.581 19.8419 724.389 20.384 724.389 21.0469V28H722.272V20.7486C722.272 20.1567 722.088 19.6809 721.718 19.321C721.349 18.9612 720.868 18.7812 720.277 18.7812C719.874 18.7812 719.502 18.8878 719.162 19.1009C718.825 19.3092 718.553 19.6004 718.345 19.9744C718.141 20.3485 718.039 20.7817 718.039 21.2741V28H715.916ZM733.592 32.0909V17.0909H735.665V18.8594H735.843C735.966 18.6321 736.144 18.3693 736.376 18.071C736.608 17.7727 736.93 17.5123 737.342 17.2898C737.754 17.0625 738.298 16.9489 738.975 16.9489C739.856 16.9489 740.642 17.1714 741.333 17.6165C742.024 18.0616 742.567 18.7031 742.96 19.5412C743.357 20.3793 743.556 21.3878 743.556 22.5668C743.556 23.7457 743.36 24.7566 742.967 25.5994C742.574 26.4375 742.034 27.0838 741.347 27.5384C740.661 27.9882 739.877 28.2131 738.996 28.2131C738.334 28.2131 737.791 28.1018 737.37 27.8793C736.953 27.6567 736.627 27.3963 736.39 27.098C736.153 26.7997 735.971 26.5346 735.843 26.3026H735.715V32.0909H733.592ZM735.673 22.5455C735.673 23.3125 735.784 23.9848 736.006 24.5625C736.229 25.1402 736.551 25.5923 736.972 25.919C737.394 26.241 737.91 26.402 738.521 26.402C739.155 26.402 739.685 26.2339 740.112 25.8977C740.538 25.5568 740.86 25.0952 741.077 24.5128C741.3 23.9304 741.411 23.2746 741.411 22.5455C741.411 21.8258 741.302 21.1795 741.085 20.6065C740.871 20.0336 740.549 19.5814 740.119 19.25C739.692 18.9186 739.16 18.7528 738.521 18.7528C737.905 18.7528 737.384 18.9115 736.958 19.2287C736.537 19.5459 736.217 19.9886 735.999 20.5568C735.781 21.125 735.673 21.7879 735.673 22.5455ZM745.935 28V17.0909H747.988V18.8239H748.102C748.3 18.2367 748.651 17.7751 749.153 17.4389C749.659 17.098 750.232 16.9276 750.871 16.9276C751.004 16.9276 751.16 16.9323 751.34 16.9418C751.525 16.9512 751.669 16.9631 751.773 16.9773V19.0085C751.688 18.9848 751.537 18.9588 751.319 18.9304C751.101 18.8973 750.883 18.8807 750.665 18.8807C750.164 18.8807 749.716 18.9872 749.323 19.2003C748.935 19.4086 748.627 19.6998 748.4 20.0739C748.173 20.4432 748.059 20.8646 748.059 21.3381V28H745.935ZM756.688 28.2415C755.997 28.2415 755.372 28.1136 754.813 27.858C754.254 27.5975 753.812 27.2211 753.485 26.7287C753.163 26.2363 753.002 25.6326 753.002 24.9176C753.002 24.3021 753.121 23.7955 753.357 23.3977C753.594 23 753.914 22.6851 754.316 22.4531C754.719 22.2211 755.168 22.0459 755.665 21.9276C756.163 21.8092 756.669 21.7192 757.185 21.6577C757.839 21.5819 758.369 21.5204 758.776 21.473C759.183 21.4209 759.479 21.3381 759.664 21.2244C759.849 21.1108 759.941 20.9261 759.941 20.6705V20.6207C759.941 20.0005 759.766 19.5199 759.415 19.179C759.07 18.8381 758.554 18.6676 757.867 18.6676C757.152 18.6676 756.589 18.8262 756.177 19.1435C755.77 19.456 755.488 19.804 755.332 20.1875L753.336 19.733C753.573 19.0701 753.918 18.535 754.373 18.1278C754.832 17.7159 755.36 17.4176 755.957 17.233C756.553 17.0436 757.181 16.9489 757.839 16.9489C758.274 16.9489 758.736 17.0009 759.224 17.1051C759.716 17.2045 760.175 17.3892 760.602 17.6591C761.032 17.929 761.385 18.3149 761.66 18.8168C761.934 19.3139 762.072 19.9602 762.072 20.7557V28H759.998V26.5085H759.913C759.775 26.7831 759.569 27.053 759.295 27.3182C759.02 27.5833 758.667 27.8035 758.237 27.9787C757.806 28.1539 757.29 28.2415 756.688 28.2415ZM757.15 26.5369C757.737 26.5369 758.239 26.4209 758.656 26.1889C759.077 25.9569 759.397 25.6539 759.614 25.2798C759.837 24.901 759.948 24.4962 759.948 24.0653V22.6591C759.872 22.7348 759.726 22.8059 759.508 22.8722C759.295 22.9337 759.051 22.9882 758.776 23.0355C758.502 23.0781 758.234 23.1184 757.974 23.1562C757.713 23.1894 757.496 23.2178 757.32 23.2415C756.908 23.2936 756.532 23.3812 756.191 23.5043C755.855 23.6274 755.585 23.8049 755.381 24.0369C755.183 24.2642 755.083 24.5672 755.083 24.946C755.083 25.4716 755.277 25.8693 755.665 26.1392C756.054 26.4044 756.549 26.5369 757.15 26.5369Z" fill="#2D96CD"/>
<path d="M498.172 1H774V19.5V41H498.172L525.573 21.8192L526.744 21L525.573 20.1808L498.172 1Z" stroke="#2D96CD" stroke-width="2"/>
<path d="M495.685 41H249.172L276.573 21.8192L277.744 21L276.573 20.1808L249.172 1H495.685L524.256 21L495.685 41Z" stroke="#2D96CD" stroke-width="2"/>
<path d="M1 1H249.685L278.256 21L249.685 41H1V21V1Z" fill="#22539B" stroke="#22539B" stroke-width="2"/>
<path d="M19.598 13.4545H22.2614L26.892 24.7614H27.0625L31.6932 13.4545H34.3565V28H32.2685V17.4744H32.1335L27.8438 27.9787H26.1108L21.821 17.4673H21.6861V28H19.598V13.4545ZM42.0785 28.2202C41.0037 28.2202 40.078 27.9905 39.3015 27.5312C38.5297 27.0672 37.9331 26.4162 37.5117 25.5781C37.0951 24.7353 36.8867 23.7481 36.8867 22.6165C36.8867 21.4991 37.0951 20.5142 37.5117 19.6619C37.9331 18.8097 38.5202 18.1444 39.2731 17.6662C40.0307 17.188 40.9161 16.9489 41.9293 16.9489C42.5449 16.9489 43.1415 17.0507 43.7191 17.2543C44.2968 17.4579 44.8152 17.7775 45.2745 18.2131C45.7338 18.6487 46.096 19.2145 46.3612 19.9105C46.6263 20.6018 46.7589 21.4422 46.7589 22.4318V23.1847H38.087V21.5938H44.6779C44.6779 21.035 44.5643 20.5402 44.337 20.1094C44.1097 19.6738 43.7901 19.3305 43.3782 19.0795C42.971 18.8286 42.4928 18.7031 41.9435 18.7031C41.3469 18.7031 40.8261 18.8499 40.381 19.1435C39.9407 19.4323 39.5998 19.8111 39.3583 20.2798C39.1216 20.7438 39.0032 21.2481 39.0032 21.7926V23.0355C39.0032 23.7647 39.131 24.3849 39.3867 24.8963C39.6471 25.4077 40.0094 25.7983 40.4734 26.0682C40.9374 26.3333 41.4795 26.4659 42.0998 26.4659C42.5022 26.4659 42.8692 26.4091 43.2006 26.2955C43.5321 26.1771 43.8185 26.0019 44.06 25.7699C44.3015 25.5379 44.4862 25.2514 44.614 24.9105L46.6239 25.2727C46.4629 25.8646 46.1741 26.383 45.7575 26.8281C45.3455 27.2685 44.8271 27.6117 44.2021 27.858C43.5818 28.0994 42.8739 28.2202 42.0785 28.2202ZM40.9705 15.6349L42.6325 12.3608H44.8697L42.668 15.6349H40.9705ZM54.2074 17.0909V18.7955H48.2486V17.0909H54.2074ZM49.8466 14.4773H51.9702V24.7969C51.9702 25.2088 52.0317 25.5189 52.1548 25.7273C52.2779 25.9309 52.4366 26.0705 52.6307 26.1463C52.8295 26.2173 53.045 26.2528 53.277 26.2528C53.4474 26.2528 53.5966 26.241 53.7244 26.2173C53.8523 26.1937 53.9517 26.1747 54.0227 26.1605L54.4062 27.9148C54.2831 27.9621 54.108 28.0095 53.8807 28.0568C53.6534 28.1089 53.3693 28.1373 53.0284 28.142C52.4697 28.1515 51.9489 28.0521 51.4659 27.8438C50.983 27.6354 50.5923 27.3134 50.294 26.8778C49.9957 26.4422 49.8466 25.8954 49.8466 25.2372V14.4773ZM61.0344 28.2202C60.0117 28.2202 59.1192 27.9858 58.3569 27.517C57.5946 27.0483 57.0027 26.3925 56.5813 25.5497C56.1599 24.7069 55.9492 23.7221 55.9492 22.5952C55.9492 21.4635 56.1599 20.474 56.5813 19.6264C57.0027 18.7789 57.5946 18.1207 58.3569 17.652C59.1192 17.1832 60.0117 16.9489 61.0344 16.9489C62.0572 16.9489 62.9497 17.1832 63.712 17.652C64.4743 18.1207 65.0662 18.7789 65.4876 19.6264C65.909 20.474 66.1197 21.4635 66.1197 22.5952C66.1197 23.7221 65.909 24.7069 65.4876 25.5497C65.0662 26.3925 64.4743 27.0483 63.712 27.517C62.9497 27.9858 62.0572 28.2202 61.0344 28.2202ZM61.0415 26.4375C61.7044 26.4375 62.2537 26.2623 62.6893 25.9119C63.1249 25.5616 63.4469 25.0952 63.6552 24.5128C63.8683 23.9304 63.9748 23.2888 63.9748 22.5881C63.9748 21.892 63.8683 21.2528 63.6552 20.6705C63.4469 20.0833 63.1249 19.6122 62.6893 19.2571C62.2537 18.902 61.7044 18.7244 61.0415 18.7244C60.3739 18.7244 59.82 18.902 59.3796 19.2571C58.944 19.6122 58.6197 20.0833 58.4066 20.6705C58.1983 21.2528 58.0941 21.892 58.0941 22.5881C58.0941 23.2888 58.1983 23.9304 58.4066 24.5128C58.6197 25.0952 58.944 25.5616 59.3796 25.9119C59.82 26.2623 60.3739 26.4375 61.0415 26.4375ZM72.5739 28.2131C71.6932 28.2131 70.9072 27.9882 70.2159 27.5384C69.5294 27.0838 68.9896 26.4375 68.5966 25.5994C68.2083 24.7566 68.0142 23.7457 68.0142 22.5668C68.0142 21.3878 68.2107 20.3793 68.6037 19.5412C69.0014 18.7031 69.5459 18.0616 70.2372 17.6165C70.9285 17.1714 71.7121 16.9489 72.5881 16.9489C73.2652 16.9489 73.8097 17.0625 74.2216 17.2898C74.6383 17.5123 74.9602 17.7727 75.1875 18.071C75.4195 18.3693 75.5994 18.6321 75.7273 18.8594H75.8551V13.4545H77.9787V28H75.9048V26.3026H75.7273C75.5994 26.5346 75.4148 26.7997 75.1733 27.098C74.9366 27.3963 74.6098 27.6567 74.1932 27.8793C73.7765 28.1018 73.2367 28.2131 72.5739 28.2131ZM73.0426 26.402C73.6534 26.402 74.1695 26.241 74.5909 25.919C75.017 25.5923 75.339 25.1402 75.5568 24.5625C75.7794 23.9848 75.8906 23.3125 75.8906 22.5455C75.8906 21.7879 75.7817 21.125 75.5639 20.5568C75.3461 19.9886 75.0265 19.5459 74.6051 19.2287C74.1837 18.9115 73.6629 18.7528 73.0426 18.7528C72.4034 18.7528 71.8707 18.9186 71.4446 19.25C71.0185 19.5814 70.6965 20.0336 70.4787 20.6065C70.2656 21.1795 70.1591 21.8258 70.1591 22.5455C70.1591 23.2746 70.268 23.9304 70.4858 24.5128C70.7036 25.0952 71.0256 25.5568 71.4517 25.8977C71.8826 26.2339 72.4129 26.402 73.0426 26.402ZM85.6048 28.2202C84.582 28.2202 83.6895 27.9858 82.9272 27.517C82.1649 27.0483 81.573 26.3925 81.1516 25.5497C80.7302 24.7069 80.5195 23.7221 80.5195 22.5952C80.5195 21.4635 80.7302 20.474 81.1516 19.6264C81.573 18.7789 82.1649 18.1207 82.9272 17.652C83.6895 17.1832 84.582 16.9489 85.6048 16.9489C86.6275 16.9489 87.52 17.1832 88.2823 17.652C89.0446 18.1207 89.6365 18.7789 90.0579 19.6264C90.4793 20.474 90.69 21.4635 90.69 22.5952C90.69 23.7221 90.4793 24.7069 90.0579 25.5497C89.6365 26.3925 89.0446 27.0483 88.2823 27.517C87.52 27.9858 86.6275 28.2202 85.6048 28.2202ZM85.6119 26.4375C86.2747 26.4375 86.824 26.2623 87.2596 25.9119C87.6952 25.5616 88.0172 25.0952 88.2255 24.5128C88.4386 23.9304 88.5451 23.2888 88.5451 22.5881C88.5451 21.892 88.4386 21.2528 88.2255 20.6705C88.0172 20.0833 87.6952 19.6122 87.2596 19.2571C86.824 18.902 86.2747 18.7244 85.6119 18.7244C84.9442 18.7244 84.3903 18.902 83.9499 19.2571C83.5143 19.6122 83.19 20.0833 82.9769 20.6705C82.7686 21.2528 82.6644 21.892 82.6644 22.5881C82.6644 23.2888 82.7686 23.9304 82.9769 24.5128C83.19 25.0952 83.5143 25.5616 83.9499 25.9119C84.3903 26.2623 84.9442 26.4375 85.6119 26.4375ZM102.437 28.2131C101.556 28.2131 100.77 27.9882 100.079 27.5384C99.3926 27.0838 98.8529 26.4375 98.4599 25.5994C98.0716 24.7566 97.8775 23.7457 97.8775 22.5668C97.8775 21.3878 98.074 20.3793 98.467 19.5412C98.8647 18.7031 99.4092 18.0616 100.1 17.6165C100.792 17.1714 101.575 16.9489 102.451 16.9489C103.128 16.9489 103.673 17.0625 104.085 17.2898C104.502 17.5123 104.824 17.7727 105.051 18.071C105.283 18.3693 105.463 18.6321 105.591 18.8594H105.718V13.4545H107.842V28H105.768V26.3026H105.591C105.463 26.5346 105.278 26.7997 105.037 27.098C104.8 27.3963 104.473 27.6567 104.056 27.8793C103.64 28.1018 103.1 28.2131 102.437 28.2131ZM102.906 26.402C103.517 26.402 104.033 26.241 104.454 25.919C104.88 25.5923 105.202 25.1402 105.42 24.5625C105.643 23.9848 105.754 23.3125 105.754 22.5455C105.754 21.7879 105.645 21.125 105.427 20.5568C105.209 19.9886 104.89 19.5459 104.468 19.2287C104.047 18.9115 103.526 18.7528 102.906 18.7528C102.267 18.7528 101.734 18.9186 101.308 19.25C100.882 19.5814 100.56 20.0336 100.342 20.6065C100.129 21.1795 100.022 21.8258 100.022 22.5455C100.022 23.2746 100.131 23.9304 100.349 24.5128C100.567 25.0952 100.889 25.5568 101.315 25.8977C101.746 26.2339 102.276 26.402 102.906 26.402ZM115.575 28.2202C114.5 28.2202 113.574 27.9905 112.798 27.5312C112.026 27.0672 111.429 26.4162 111.008 25.5781C110.591 24.7353 110.383 23.7481 110.383 22.6165C110.383 21.4991 110.591 20.5142 111.008 19.6619C111.429 18.8097 112.016 18.1444 112.769 17.6662C113.527 17.188 114.412 16.9489 115.425 16.9489C116.041 16.9489 116.638 17.0507 117.215 17.2543C117.793 17.4579 118.311 17.7775 118.771 18.2131C119.23 18.6487 119.592 19.2145 119.857 19.9105C120.122 20.6018 120.255 21.4422 120.255 22.4318V23.1847H111.583V21.5938H118.174C118.174 21.035 118.06 20.5402 117.833 20.1094C117.606 19.6738 117.286 19.3305 116.874 19.0795C116.467 18.8286 115.989 18.7031 115.44 18.7031C114.843 18.7031 114.322 18.8499 113.877 19.1435C113.437 19.4323 113.096 19.8111 112.854 20.2798C112.618 20.7438 112.499 21.2481 112.499 21.7926V23.0355C112.499 23.7647 112.627 24.3849 112.883 24.8963C113.143 25.4077 113.505 25.7983 113.969 26.0682C114.433 26.3333 114.976 26.4659 115.596 26.4659C115.998 26.4659 116.365 26.4091 116.697 26.2955C117.028 26.1771 117.315 26.0019 117.556 25.7699C117.798 25.5379 117.982 25.2514 118.11 24.9105L120.12 25.2727C119.959 25.8646 119.67 26.383 119.254 26.8281C118.842 27.2685 118.323 27.6117 117.698 27.858C117.078 28.0994 116.37 28.2202 115.575 28.2202ZM127.904 32.0909V17.0909H129.978V18.8594H130.156C130.279 18.6321 130.456 18.3693 130.688 18.071C130.92 17.7727 131.242 17.5123 131.654 17.2898C132.066 17.0625 132.611 16.9489 133.288 16.9489C134.168 16.9489 134.954 17.1714 135.646 17.6165C136.337 18.0616 136.879 18.7031 137.272 19.5412C137.67 20.3793 137.869 21.3878 137.869 22.5668C137.869 23.7457 137.672 24.7566 137.279 25.5994C136.886 26.4375 136.346 27.0838 135.66 27.5384C134.973 27.9882 134.19 28.2131 133.309 28.2131C132.646 28.2131 132.104 28.1018 131.683 27.8793C131.266 27.6567 130.939 27.3963 130.702 27.098C130.466 26.7997 130.283 26.5346 130.156 26.3026H130.028V32.0909H127.904ZM129.985 22.5455C129.985 23.3125 130.096 23.9848 130.319 24.5625C130.541 25.1402 130.863 25.5923 131.285 25.919C131.706 26.241 132.222 26.402 132.833 26.402C133.468 26.402 133.998 26.2339 134.424 25.8977C134.85 25.5568 135.172 25.0952 135.39 24.5128C135.612 23.9304 135.724 23.2746 135.724 22.5455C135.724 21.8258 135.615 21.1795 135.397 20.6065C135.184 20.0336 134.862 19.5814 134.431 19.25C134.005 18.9186 133.472 18.7528 132.833 18.7528C132.218 18.7528 131.697 18.9115 131.271 19.2287C130.849 19.5459 130.53 19.9886 130.312 20.5568C130.094 21.125 129.985 21.7879 129.985 22.5455ZM143.423 28.2415C142.731 28.2415 142.106 28.1136 141.548 27.858C140.989 27.5975 140.546 27.2211 140.219 26.7287C139.897 26.2363 139.737 25.6326 139.737 24.9176C139.737 24.3021 139.855 23.7955 140.092 23.3977C140.328 23 140.648 22.6851 141.05 22.4531C141.453 22.2211 141.903 22.0459 142.4 21.9276C142.897 21.8092 143.404 21.7192 143.92 21.6577C144.573 21.5819 145.103 21.5204 145.511 21.473C145.918 21.4209 146.214 21.3381 146.398 21.2244C146.583 21.1108 146.675 20.9261 146.675 20.6705V20.6207C146.675 20.0005 146.5 19.5199 146.15 19.179C145.804 18.8381 145.288 18.6676 144.602 18.6676C143.887 18.6676 143.323 18.8262 142.911 19.1435C142.504 19.456 142.222 19.804 142.066 20.1875L140.07 19.733C140.307 19.0701 140.653 18.535 141.107 18.1278C141.567 17.7159 142.094 17.4176 142.691 17.233C143.288 17.0436 143.915 16.9489 144.573 16.9489C145.009 16.9489 145.47 17.0009 145.958 17.1051C146.451 17.2045 146.91 17.3892 147.336 17.6591C147.767 17.929 148.12 18.3149 148.394 18.8168C148.669 19.3139 148.806 19.9602 148.806 20.7557V28H146.732V26.5085H146.647C146.51 26.7831 146.304 27.053 146.029 27.3182C145.754 27.5833 145.402 27.8035 144.971 27.9787C144.54 28.1539 144.024 28.2415 143.423 28.2415ZM143.884 26.5369C144.471 26.5369 144.973 26.4209 145.39 26.1889C145.811 25.9569 146.131 25.6539 146.349 25.2798C146.571 24.901 146.683 24.4962 146.683 24.0653V22.6591C146.607 22.7348 146.46 22.8059 146.242 22.8722C146.029 22.9337 145.785 22.9882 145.511 23.0355C145.236 23.0781 144.969 23.1184 144.708 23.1562C144.448 23.1894 144.23 23.2178 144.055 23.2415C143.643 23.2936 143.266 23.3812 142.925 23.5043C142.589 23.6274 142.319 23.8049 142.116 24.0369C141.917 24.2642 141.817 24.5672 141.817 24.946C141.817 25.4716 142.012 25.8693 142.4 26.1392C142.788 26.4044 143.283 26.5369 143.884 26.5369ZM156.208 32.3182C155.342 32.3182 154.596 32.2045 153.971 31.9773C153.351 31.75 152.844 31.4493 152.451 31.0753C152.058 30.7012 151.765 30.2917 151.571 29.8466L153.396 29.0938C153.524 29.3021 153.694 29.5223 153.907 29.7543C154.125 29.991 154.419 30.1922 154.788 30.358C155.162 30.5237 155.643 30.6065 156.23 30.6065C157.035 30.6065 157.7 30.41 158.225 30.017C158.751 29.6288 159.014 29.0085 159.014 28.1562V26.0114H158.879C158.751 26.2434 158.566 26.5014 158.325 26.7855C158.088 27.0696 157.761 27.3158 157.345 27.5241C156.928 27.7325 156.386 27.8366 155.718 27.8366C154.857 27.8366 154.08 27.6354 153.389 27.233C152.702 26.8258 152.158 26.2268 151.755 25.4361C151.358 24.6406 151.159 23.6629 151.159 22.5028C151.159 21.3428 151.355 20.3485 151.748 19.5199C152.146 18.6913 152.69 18.0568 153.382 17.6165C154.073 17.1714 154.857 16.9489 155.733 16.9489C156.41 16.9489 156.957 17.0625 157.373 17.2898C157.79 17.5123 158.114 17.7727 158.346 18.071C158.583 18.3693 158.765 18.6321 158.893 18.8594H159.049V17.0909H161.13V28.2415C161.13 29.179 160.913 29.9484 160.477 30.5497C160.041 31.151 159.452 31.5961 158.708 31.8849C157.97 32.1738 157.136 32.3182 156.208 32.3182ZM156.187 26.0753C156.798 26.0753 157.314 25.9332 157.735 25.6491C158.162 25.3603 158.484 24.9484 158.701 24.4134C158.924 23.8736 159.035 23.2273 159.035 22.4744C159.035 21.7405 158.926 21.0942 158.708 20.5355C158.491 19.9768 158.171 19.5412 157.75 19.2287C157.328 18.9115 156.807 18.7528 156.187 18.7528C155.548 18.7528 155.015 18.9186 154.589 19.25C154.163 19.5767 153.841 20.0218 153.623 20.5852C153.41 21.1487 153.304 21.7784 153.304 22.4744C153.304 23.1894 153.413 23.8168 153.63 24.3565C153.848 24.8963 154.17 25.3177 154.596 25.6207C155.027 25.9238 155.557 26.0753 156.187 26.0753ZM167.153 28.2415C166.462 28.2415 165.837 28.1136 165.278 27.858C164.719 27.5975 164.277 27.2211 163.95 26.7287C163.628 26.2363 163.467 25.6326 163.467 24.9176C163.467 24.3021 163.585 23.7955 163.822 23.3977C164.059 23 164.378 22.6851 164.781 22.4531C165.183 22.2211 165.633 22.0459 166.13 21.9276C166.627 21.8092 167.134 21.7192 167.65 21.6577C168.304 21.5819 168.834 21.5204 169.241 21.473C169.648 21.4209 169.944 21.3381 170.129 21.2244C170.314 21.1108 170.406 20.9261 170.406 20.6705V20.6207C170.406 20.0005 170.231 19.5199 169.88 19.179C169.535 18.8381 169.019 18.6676 168.332 18.6676C167.617 18.6676 167.054 18.8262 166.642 19.1435C166.234 19.456 165.953 19.804 165.797 20.1875L163.801 19.733C164.038 19.0701 164.383 18.535 164.838 18.1278C165.297 17.7159 165.825 17.4176 166.422 17.233C167.018 17.0436 167.645 16.9489 168.304 16.9489C168.739 16.9489 169.201 17.0009 169.689 17.1051C170.181 17.2045 170.64 17.3892 171.066 17.6591C171.497 17.929 171.85 18.3149 172.125 18.8168C172.399 19.3139 172.537 19.9602 172.537 20.7557V28H170.463V26.5085H170.377C170.24 26.7831 170.034 27.053 169.76 27.3182C169.485 27.5833 169.132 27.8035 168.701 27.9787C168.27 28.1539 167.754 28.2415 167.153 28.2415ZM167.615 26.5369C168.202 26.5369 168.704 26.4209 169.12 26.1889C169.542 25.9569 169.861 25.6539 170.079 25.2798C170.302 24.901 170.413 24.4962 170.413 24.0653V22.6591C170.337 22.7348 170.19 22.8059 169.973 22.8722C169.76 22.9337 169.516 22.9882 169.241 23.0355C168.967 23.0781 168.699 23.1184 168.439 23.1562C168.178 23.1894 167.96 23.2178 167.785 23.2415C167.373 23.2936 166.997 23.3812 166.656 23.5043C166.32 23.6274 166.05 23.8049 165.846 24.0369C165.647 24.2642 165.548 24.5672 165.548 24.946C165.548 25.4716 165.742 25.8693 166.13 26.1392C166.519 26.4044 167.013 26.5369 167.615 26.5369ZM175.365 28V17.0909H177.403V18.8665H177.538C177.766 18.2652 178.137 17.7964 178.653 17.4602C179.17 17.1193 179.787 16.9489 180.507 16.9489C181.236 16.9489 181.847 17.1193 182.339 17.4602C182.837 17.8011 183.204 18.2699 183.44 18.8665H183.554C183.814 18.2841 184.229 17.8201 184.797 17.4744C185.365 17.1241 186.042 16.9489 186.828 16.9489C187.818 16.9489 188.625 17.259 189.25 17.8793C189.88 18.4995 190.195 19.4347 190.195 20.6847V28H188.071V20.8835C188.071 20.1449 187.87 19.6098 187.467 19.2784C187.065 18.947 186.584 18.7812 186.026 18.7812C185.334 18.7812 184.797 18.9943 184.413 19.4205C184.03 19.8419 183.838 20.384 183.838 21.0469V28H181.722V20.7486C181.722 20.1567 181.537 19.6809 181.168 19.321C180.798 18.9612 180.318 18.7812 179.726 18.7812C179.323 18.7812 178.952 18.8878 178.611 19.1009C178.275 19.3092 178.002 19.6004 177.794 19.9744C177.59 20.3485 177.489 20.7817 177.489 21.2741V28H175.365ZM197.743 28.2202C196.668 28.2202 195.742 27.9905 194.966 27.5312C194.194 27.0672 193.597 26.4162 193.176 25.5781C192.759 24.7353 192.551 23.7481 192.551 22.6165C192.551 21.4991 192.759 20.5142 193.176 19.6619C193.597 18.8097 194.184 18.1444 194.937 17.6662C195.695 17.188 196.58 16.9489 197.593 16.9489C198.209 16.9489 198.806 17.0507 199.383 17.2543C199.961 17.4579 200.479 17.7775 200.939 18.2131C201.398 18.6487 201.76 19.2145 202.025 19.9105C202.29 20.6018 202.423 21.4422 202.423 22.4318V23.1847H193.751V21.5938H200.342C200.342 21.035 200.228 20.5402 200.001 20.1094C199.774 19.6738 199.454 19.3305 199.042 19.0795C198.635 18.8286 198.157 18.7031 197.608 18.7031C197.011 18.7031 196.49 18.8499 196.045 19.1435C195.605 19.4323 195.264 19.8111 195.022 20.2798C194.786 20.7438 194.667 21.2481 194.667 21.7926V23.0355C194.667 23.7647 194.795 24.3849 195.051 24.8963C195.311 25.4077 195.673 25.7983 196.137 26.0682C196.601 26.3333 197.144 26.4659 197.764 26.4659C198.166 26.4659 198.533 26.4091 198.865 26.2955C199.196 26.1771 199.483 26.0019 199.724 25.7699C199.966 25.5379 200.15 25.2514 200.278 24.9105L202.288 25.2727C202.127 25.8646 201.838 26.383 201.422 26.8281C201.01 27.2685 200.491 27.6117 199.866 27.858C199.246 28.0994 198.538 28.2202 197.743 28.2202ZM206.903 21.5227V28H204.779V17.0909H206.817V18.8665H206.952C207.203 18.2888 207.596 17.8248 208.131 17.4744C208.671 17.1241 209.351 16.9489 210.17 16.9489C210.913 16.9489 211.564 17.1051 212.123 17.4176C212.682 17.7254 213.115 18.1847 213.423 18.7955C213.73 19.4062 213.884 20.1615 213.884 21.0611V28H211.761V21.3168C211.761 20.526 211.555 19.9081 211.143 19.4631C210.731 19.0133 210.165 18.7884 209.445 18.7884C208.953 18.7884 208.515 18.8949 208.131 19.108C207.753 19.321 207.452 19.6335 207.229 20.0455C207.012 20.4527 206.903 20.9451 206.903 21.5227ZM221.825 17.0909V18.7955H215.866V17.0909H221.825ZM217.464 14.4773H219.587V24.7969C219.587 25.2088 219.649 25.5189 219.772 25.7273C219.895 25.9309 220.054 26.0705 220.248 26.1463C220.447 26.2173 220.662 26.2528 220.894 26.2528C221.065 26.2528 221.214 26.241 221.342 26.2173C221.469 26.1937 221.569 26.1747 221.64 26.1605L222.023 27.9148C221.9 27.9621 221.725 28.0095 221.498 28.0568C221.271 28.1089 220.987 28.1373 220.646 28.142C220.087 28.1515 219.566 28.0521 219.083 27.8438C218.6 27.6354 218.21 27.3134 217.911 26.8778C217.613 26.4422 217.464 25.8954 217.464 25.2372V14.4773ZM228.652 28.2202C227.629 28.2202 226.736 27.9858 225.974 27.517C225.212 27.0483 224.62 26.3925 224.199 25.5497C223.777 24.7069 223.566 23.7221 223.566 22.5952C223.566 21.4635 223.777 20.474 224.199 19.6264C224.62 18.7789 225.212 18.1207 225.974 17.652C226.736 17.1832 227.629 16.9489 228.652 16.9489C229.674 16.9489 230.567 17.1832 231.329 17.652C232.092 18.1207 232.683 18.7789 233.105 19.6264C233.526 20.474 233.737 21.4635 233.737 22.5952C233.737 23.7221 233.526 24.7069 233.105 25.5497C232.683 26.3925 232.092 27.0483 231.329 27.517C230.567 27.9858 229.674 28.2202 228.652 28.2202ZM228.659 26.4375C229.322 26.4375 229.871 26.2623 230.306 25.9119C230.742 25.5616 231.064 25.0952 231.272 24.5128C231.485 23.9304 231.592 23.2888 231.592 22.5881C231.592 21.892 231.485 21.2528 231.272 20.6705C231.064 20.0833 230.742 19.6122 230.306 19.2571C229.871 18.902 229.322 18.7244 228.659 18.7244C227.991 18.7244 227.437 18.902 226.997 19.2571C226.561 19.6122 226.237 20.0833 226.024 20.6705C225.815 21.2528 225.711 21.892 225.711 22.5881C225.711 23.2888 225.815 23.9304 226.024 24.5128C226.237 25.0952 226.561 25.5616 226.997 25.9119C227.437 26.2623 227.991 26.4375 228.659 26.4375Z" fill="white"/>
</svg>
